<?xml version="1.0" encoding="utf-8"?>
<!-- Generator: Adobe Illustrator 15.0.2, SVG Export Plug-In . SVG Version: 6.00 Build 0)  -->
<!DOCTYPE svg PUBLIC "-//W3C//DTD SVG 1.1//EN" "http://www.w3.org/Graphics/SVG/1.1/DTD/svg11.dtd">
<svg version="1.1" id="Layer_1" xmlns="http://www.w3.org/2000/svg" xmlns:xlink="http://www.w3.org/1999/xlink" x="0px" y="0px"
	 width="500px" height="160px" viewBox="-73.95 240.5 500 160" enable-background="new -73.95 240.5 500 160" xml:space="preserve">
<g id="Isolated_Zone" display="none">
	<rect x="0" display="inline" fill="none" width="253.1" height="89.8"/>
</g>
<g id="Layer_1_1_">
	<g>
		<path d="M129.275,313.859l-2.799-6.4l-2.801,6.4H129.275 M129.876,314.859h-6.4l-1,1.801c-0.201,0.6-0.4,1-0.4,1.398
			c0,0.602,0.199,0.801,0.6,1.201c0.201,0.199,0.801,0.199,1.801,0.4v0.6h-6v-0.6c0.6,0,1.199-0.4,1.6-0.801s1-1.4,1.6-2.801
			l6.6-14.6h0.201l6.6,15c0.6,1.4,1.199,2.4,1.6,2.6c0.4,0.201,0.801,0.4,1.201,0.4v0.6h-8.801v-0.6h0.4c0.799,0,1.199,0,1.4-0.199
			c0.199-0.201,0.199-0.4,0.199-0.6c0-0.201,0-0.4,0-0.602c0,0-0.199-0.398-0.4-1L129.876,314.859z"/>
		<path d="M149.075,307.459v9.801c0,1,0,1.6,0.199,1.799c0.201,0.201,0.602,0.4,1,0.4v0.4h-5.199v-1.6
			c-0.6,0.799-1.199,1.199-1.801,1.6c-0.6,0.4-1.199,0.4-2,0.4c-0.799,0-1.398-0.201-2-0.6c-0.6-0.4-1-1-1.199-1.602
			c-0.199-0.6-0.199-1.6-0.199-3v-5c0-1,0-1.6-0.201-1.799c-0.199-0.201-0.6-0.4-1-0.4v-0.4h5.201v8.6c0,1,0,1.4,0.199,1.801
			c0,0.199,0.199,0.4,0.4,0.6c0.199,0.201,0.4,0.201,0.6,0.201c0.4,0,0.6,0,0.801-0.201c0.398-0.199,0.799-0.799,1.199-1.4v-6.799
			c0-1,0-1.6-0.199-1.801c-0.201-0.199-0.602-0.4-1-0.4v-0.398h5.199"/>
		<path d="M159.275,307.059l0.201,4.4h-0.4c-0.6-1.199-1.199-2.199-1.801-2.6c-0.6-0.4-1.199-0.801-1.799-0.801
			c-0.4,0-0.6,0.201-1,0.4c-0.201,0.201-0.4,0.6-0.4,0.801c0,0.199,0,0.4,0.199,0.799c0.201,0.4,1,1,2.4,2
			c1.4,0.801,2.201,1.602,2.6,2.201c0.4,0.6,0.602,1.4,0.602,2c0,0.799-0.201,1.4-0.602,2c-0.398,0.6-0.799,1.199-1.398,1.6
			c-0.602,0.4-1.4,0.6-2.201,0.6c-0.6,0-1.4-0.199-2.4-0.6c-0.199,0-0.398-0.199-0.6-0.199c-0.199,0-0.6,0.199-0.799,0.6h-0.4
			l-0.201-4.6h0.4c0.4,1.199,1,2,1.6,2.6c0.801,0.6,1.4,0.799,2,0.799c0.4,0,0.801-0.199,1-0.398c0.201-0.201,0.4-0.602,0.4-1
			c0-0.4-0.199-0.801-0.4-1.201c-0.199-0.4-0.799-0.799-1.799-1.4c-1.4-1-2.201-1.6-2.6-2.199c-0.602-0.801-0.801-1.6-0.801-2.4
			c0-1,0.4-1.799,1-2.6s1.6-1.199,3-1.199c0.6,0,1.4,0.199,2,0.398c0.199,0.201,0.4,0.201,0.6,0.201c0.201,0,0.201,0,0.4,0
			s0.199-0.201,0.4-0.6h0.799"/>
		<path d="M166.075,302.859v4.6h3v1.4h-3v7.801c0,0.799,0,1.199,0,1.398c0,0.201,0.199,0.4,0.4,0.602
			c0.199,0.199,0.4,0.199,0.4,0.199c0.6,0,1.199-0.4,1.6-1.4l0.4,0.201c-0.801,1.799-2,2.6-3.602,2.6c-0.799,0-1.398-0.201-2-0.6
			c-0.6-0.4-0.799-1-1-1.4c0-0.4-0.199-1.201-0.199-2.4v-7h-1.6v-0.4c1.199-0.799,2-1.6,2.799-2.6c0.801-0.801,1.4-1.801,2-3
			H166.075"/>
		<path d="M175.275,307.459v2.801c0.801-1.4,1.602-2.201,2.201-2.6c0.6-0.4,1.199-0.602,1.799-0.602c0.602,0,1,0.201,1.201,0.4
			c0.4,0.4,0.4,0.801,0.4,1.4s-0.201,1-0.4,1.4c-0.201,0.4-0.6,0.4-1,0.4s-0.801-0.201-1.201-0.4c-0.398-0.4-0.6-0.4-0.6-0.6
			c0,0-0.199,0-0.4,0c-0.199,0-0.6,0-0.799,0.199c-0.4,0.4-0.6,0.801-0.801,1.4c-0.199,0.799-0.4,1.799-0.4,2.799v3v0.801
			c0,0.6,0,0.801,0,1c0.201,0.199,0.201,0.4,0.4,0.6c0.201,0.201,0.6,0.201,1,0.201v0.398h-6.799v-0.398c0.6,0,1-0.201,1.199-0.4
			c0.199-0.201,0.199-1,0.199-2v-7c0-0.801,0-1.201-0.199-1.4c0-0.199-0.199-0.4-0.4-0.6c-0.199-0.201-0.4-0.201-1-0.201v-0.398h5.6
			"/>
		<path d="M187.876,317.26v-4.201c-1,0.602-2,1.4-2.4,2c-0.4,0.4-0.6,1-0.6,1.4s0.199,0.801,0.398,1c0.201,0.201,0.602,0.4,1,0.4
			C186.675,318.059,187.275,317.859,187.876,317.26 M187.876,318.26c-1.602,1.4-3,2-4.201,2c-0.799,0-1.4-0.201-1.799-0.801
			c-0.4-0.4-0.801-1-0.801-1.799c0-1,0.4-1.801,1.199-2.602c0.801-0.799,2.602-1.799,5.4-3v-1.199c0-1,0-1.6-0.199-1.801
			c0-0.199-0.201-0.398-0.6-0.6c-0.201-0.199-0.602-0.199-1-0.199c-0.602,0-1,0.199-1.4,0.4c-0.201,0.199-0.4,0.398-0.4,0.6
			c0,0.199,0.199,0.4,0.4,0.799c0.4,0.4,0.6,0.801,0.6,1.201s-0.199,0.799-0.4,1.199c-0.4,0.4-0.799,0.4-1.199,0.4
			c-0.6,0-1-0.199-1.4-0.6s-0.6-0.801-0.6-1.201c0-0.6,0.199-1.199,0.799-1.799c0.602-0.6,1.201-1,2.201-1.4s1.799-0.4,2.799-0.4
			c1.201,0,2.201,0.201,2.801,0.801c0.801,0.6,1.199,1,1.4,1.6c0.199,0.4,0.199,1.199,0.199,2.6v4.801c0,0.6,0,1,0,1
			c0,0.199,0.201,0.199,0.201,0.4c0,0,0.199,0.199,0.398,0.199c0.201,0,0.4-0.199,0.801-0.6l0.4,0.4c-0.4,0.6-1,1.199-1.4,1.398
			c-0.4,0.201-1,0.4-1.6,0.4c-0.801,0-1.201-0.199-1.6-0.6C188.075,319.459,187.876,318.859,187.876,318.26z"/>
		<path d="M198.876,301.859v15.6c0,0.801,0.199,1.4,0.398,1.801c0.201,0.199,0.602,0.4,1.201,0.4v0.398h-6.801v-0.398
			c0.6,0,1-0.201,1.201-0.4c0.199-0.201,0.199-0.801,0.199-1.6v-13c0-0.801-0.199-1.4-0.4-1.602c-0.199-0.199-0.6-0.398-1.199-0.398
			v-0.4h5.4"/>
		<path d="M206.476,307.459v10c0,0.801,0.199,1.4,0.4,1.801c0.199,0.199,0.6,0.4,1.199,0.4v0.398h-6.801v-0.398
			c0.602,0,1-0.201,1.201-0.4c0.199-0.201,0.199-0.801,0.199-1.6v-7.4c0-0.801-0.199-1.4-0.4-1.6c-0.199-0.201-0.6-0.4-1.199-0.4
			v-0.4h5.4 M204.476,301.459c0.6,0,1,0.201,1.4,0.6c0.398,0.4,0.6,0.801,0.6,1.4s-0.201,1-0.6,1.4c-0.4,0.4-0.801,0.6-1.4,0.6
			s-1-0.199-1.4-0.6s-0.6-0.801-0.6-1.4s0.199-1,0.6-1.4C203.476,301.66,204.075,301.459,204.476,301.459z"/>
		<path d="M215.275,317.26v-4.201c-1,0.602-1.799,1.4-2.398,2c-0.4,0.4-0.602,1-0.602,1.4s0.201,0.801,0.4,1
			c0.201,0.201,0.6,0.4,1,0.4C214.275,318.059,214.675,317.859,215.275,317.26 M215.275,318.26c-1.6,1.4-3,2-4.199,2
			c-0.801,0-1.4-0.201-1.801-0.801c-0.398-0.4-0.799-1-0.799-1.799c0-1,0.4-1.801,1.199-2.602c0.801-0.799,2.6-1.799,5.4-3v-1.199
			c0-1,0-1.6-0.199-1.801c0-0.199-0.201-0.398-0.602-0.6c-0.199-0.199-0.6-0.199-1-0.199c-0.6,0-1,0.199-1.398,0.4
			c-0.201,0.199-0.4,0.398-0.4,0.6c0,0.199,0.199,0.4,0.4,0.799c0.398,0.4,0.6,0.801,0.6,1.201s-0.201,0.799-0.6,1.199
			c-0.4,0.4-0.801,0.4-1.201,0.4c-0.6,0-1-0.199-1.4-0.6c-0.398-0.4-0.6-0.801-0.6-1.201c0-0.6,0.201-1.199,0.801-1.799
			s1.199-1,2.199-1.4s1.801-0.4,2.801-0.4c1.199,0,2.199,0.201,2.799,0.801c0.801,0.6,1.201,1,1.4,1.6
			c0.201,0.4,0.201,1.199,0.201,2.6v4.801c0,0.6,0,1,0,1c0,0.199,0.199,0.199,0.199,0.4c0,0,0.199,0.199,0.4,0.199
			c0.199,0,0.4-0.199,0.799-0.6l0.4,0.4c-0.4,0.6-1,1.199-1.4,1.398c-0.398,0.201-1,0.4-1.6,0.4c-0.799,0-1.199-0.199-1.6-0.6
			S215.476,318.859,215.275,318.26z"/>
		<path d="M226.275,307.459v1.6c0.602-0.799,1.201-1.199,1.801-1.6s1.199-0.4,2-0.4s1.6,0.201,2,0.602c0.6,0.398,0.801,1,1,1.6
			s0.199,1.4,0.199,3v5c0,1,0,1.6,0.201,1.799c0.199,0.201,0.6,0.4,1.199,0.4v0.4h-6.4v-0.4c0.4,0,0.801-0.199,1-0.6
			c0.201-0.199,0.201-0.801,0.201-1.6v-5.6c0-1,0-1.602-0.201-2c0-0.201-0.199-0.4-0.398-0.602c-0.201-0.199-0.4-0.199-0.602-0.199
			c-0.799,0-1.398,0.6-2.199,1.6v6.801c0,1,0,1.6,0.199,1.799c0.201,0.201,0.602,0.4,1,0.4v0.4h-6.398v-0.4c0.6,0,1-0.199,1.199-0.6
			c0.199-0.199,0.199-0.801,0.199-1.801v-7.199c0-1,0-1.6-0.199-1.801c-0.199-0.199-0.6-0.398-1-0.398v-0.4h5.199"/>
		<path d="M259.675,301.459v6.4h-0.6c-0.6-1.801-1.6-3.199-2.801-4c-1.199-1-2.6-1.4-4-1.4c-1.398,0-2.6,0.4-3.398,1.201
			c-1,0.799-1.602,1.799-2,3.199c-0.4,1.4-0.602,2.801-0.602,4.199c0,1.801,0.201,3.201,0.602,4.602c0.398,1.398,1,2.199,2,3
			c1,0.6,2,1,3.199,1c0.4,0,0.801,0,1.4-0.201c0.4-0.199,1-0.199,1.4-0.4v-3.799c0-0.801,0-1.201-0.201-1.4c0-0.199-0.4-0.4-0.6-0.6
			c-0.4-0.201-0.6-0.201-1.199-0.201h-0.4v-0.6h8.799v0.4c-0.6,0-1.199,0.199-1.398,0.199c-0.201,0.201-0.4,0.4-0.602,0.602
			c0,0.199-0.199,0.6-0.199,1.199v3.801c-1.199,0.6-2.4,1-3.6,1.199c-1.201,0.199-2.6,0.4-4,0.4c-1.801,0-3.201-0.201-4.4-0.801
			c-1.199-0.4-2.199-1-3-1.799c-0.801-0.801-1.6-1.602-2-2.602c-0.6-1.199-1-2.6-1-4.199c0-2.801,1-5,3-7
			c2-1.801,4.4-2.801,7.4-2.801c1,0,1.799,0,2.4,0.201c0.398,0,1,0.199,2,0.6c0.799,0.4,1.398,0.6,1.6,0.6
			c0.199,0,0.4,0,0.799-0.199c0.201-0.201,0.4-0.6,0.602-1h0.799"/>
		<path d="M268.476,308.059c-0.4,0-0.801,0.201-1.201,0.602c-0.398,0.398-0.6,1-0.6,2c-0.199,1-0.199,2.398-0.199,4.199
			c0,1,0,1.801,0.199,2.6c0.201,0.6,0.4,1.201,0.6,1.4c0.4,0.4,0.602,0.6,1.201,0.6c0.4,0,0.799-0.199,1-0.4
			c0.4-0.398,0.6-0.799,0.6-1.199c0.199-0.801,0.199-2.6,0.199-5.199c0-1.602,0-2.602-0.199-3.201s-0.4-1-0.801-1.199
			C269.075,308.26,268.876,308.059,268.476,308.059 M268.275,307.059c1,0,2.201,0.201,3,0.801c1,0.6,1.602,1.4,2.201,2.4
			c0.4,1,0.799,2.199,0.799,3.4c0,1.799-0.398,3.199-1.398,4.398c-1.201,1.4-2.602,2.201-4.602,2.201c-1.799,0-3.398-0.6-4.398-2
			s-1.602-2.801-1.602-4.6c0-1.801,0.602-3.4,1.602-4.801C265.075,307.859,266.476,307.059,268.275,307.059z"/>
		<path d="M280.275,320.459l-4.199-9.799c-0.6-1.201-1-2-1.199-2.201c-0.201-0.199-0.602-0.4-1-0.4v-0.398h6.799v0.398
			c-0.4,0-0.799,0-0.799,0.201c-0.201,0.199-0.4,0.4-0.4,0.799c0,0.4,0.199,1,0.6,1.801l2,4.801l1.6-4c0.4-1.201,0.801-2,0.801-2.4
			c0-0.201-0.201-0.6-0.4-0.6c-0.199-0.201-0.6-0.201-1-0.201v-0.4h4.199v0.4c-0.398,0-0.799,0.201-1,0.4
			c-0.199,0.199-0.6,1-1.199,2.199l-4.199,10h-0.602"/>
		<path d="M293.876,312.459c0-1.4,0-2.4-0.201-3c-0.199-0.6-0.4-1-0.799-1.199c-0.201-0.201-0.4-0.201-0.801-0.201
			s-0.801,0.201-1.199,0.602c-0.602,0.799-0.801,1.799-0.801,3.199v0.4h3.801 M297.075,313.459h-7c0,1.6,0.6,3,1.4,4
			c0.6,0.801,1.4,1.201,2.199,1.201c0.6,0,1-0.201,1.4-0.4c0.4-0.4,1-0.801,1.4-1.6l0.4,0.199c-0.602,1.4-1.4,2.4-2.201,3
			c-0.799,0.6-1.799,0.801-2.799,0.801c-1.801,0-3.201-0.801-4.201-2.201c-0.799-1.199-1.199-2.6-1.199-4.4
			c0-2.199,0.6-3.799,1.799-5c1.201-1.199,2.4-1.799,4-1.799c1.201,0,2.4,0.6,3.4,1.6
			C296.476,309.66,297.075,311.26,297.075,313.459z"/>
		<path d="M303.075,307.459v2.801c0.801-1.4,1.6-2.201,2.199-2.6c0.602-0.4,1.201-0.602,1.801-0.602s1,0.201,1.199,0.4
			c0.4,0.4,0.4,0.801,0.4,1.4s-0.199,1-0.4,1.4c-0.199,0.4-0.6,0.4-1,0.4c-0.398,0-0.799-0.201-1.199-0.4c-0.4-0.4-0.6-0.4-0.6-0.6
			c0,0-0.201,0-0.4,0s-0.6,0-0.801,0.199c-0.398,0.4-0.6,0.801-0.799,1.4c-0.201,0.799-0.4,1.799-0.4,2.799v3v0.801
			c0,0.6,0,0.801,0,1c0.199,0.199,0.199,0.4,0.4,0.6c0.199,0.201,0.6,0.201,1,0.201v0.398h-6.801v-0.398c0.6,0,1-0.201,1.201-0.4
			c0.199-0.201,0.199-1,0.199-2v-7c0-0.801,0-1.201-0.199-1.4c0-0.199-0.201-0.4-0.4-0.6c-0.201-0.201-0.4-0.201-1-0.201v-0.398h5.6
			"/>
		<path d="M314.675,307.459v1.6c0.6-0.799,1.201-1.199,1.801-1.6s1.199-0.4,2-0.4c0.799,0,1.4,0.201,2,0.602
			c0.6,0.398,0.799,1,1,1.6c0.199,0.6,0.199,1.4,0.199,3v5c0,1,0,1.6,0.201,1.799c0.199,0.201,0.6,0.4,1.199,0.4v0.4h-6.4v-0.4
			c0.4,0,0.801-0.199,1-0.6c0.201-0.199,0.201-0.801,0.201-1.6v-5.6c0-1,0-1.602-0.201-2c0-0.201-0.199-0.4-0.4-0.602
			c-0.199-0.199-0.398-0.199-0.6-0.199c-0.799,0-1.4,0.6-2.199,1.6v6.801c0,1,0,1.6,0.199,1.799c0.201,0.201,0.6,0.4,1,0.4v0.4h-6.4
			v-0.4c0.602,0,1-0.199,1.201-0.6c0.199-0.199,0.199-0.801,0.199-1.801v-7.199c0-1,0-1.6-0.199-1.801
			c-0.201-0.199-0.6-0.398-1-0.398v-0.4h5.199"/>
		<path d="M329.476,307.459v1.6c0.6-0.799,1.4-1.199,2-1.6s1.199-0.4,2-0.4c0.799,0,1.4,0.201,2,0.602c0.6,0.398,1,1,1.199,1.799
			c0.801-0.799,1.4-1.4,2-1.799c0.6-0.4,1.4-0.602,2-0.602c0.801,0,1.6,0.201,2,0.602c0.6,0.398,0.801,1,1,1.6
			c0.201,0.6,0.4,1.6,0.4,3v5.199c0,1,0,1.6,0.199,1.801c0.201,0.199,0.602,0.4,1.201,0.4v0.398h-6.6v-0.398
			c0.6,0,0.799-0.201,1.199-0.602c0.199-0.199,0.199-0.799,0.199-1.6v-5.4c0-1.199,0-1.799-0.199-2.199c0-0.4-0.199-0.6-0.4-0.6
			c-0.199-0.201-0.4-0.201-0.6-0.201c-0.4,0-0.801,0.201-1.199,0.4c-0.4,0.201-0.801,0.801-1.201,1.201v6.799c0,1,0,1.4,0.201,1.801
			c0.199,0.4,0.6,0.6,1.199,0.6v0.4h-6.6v-0.4c0.4,0,0.6-0.199,0.799-0.199c0.201-0.201,0.4-0.4,0.4-0.602
			c0-0.199,0.201-0.799,0.201-1.398v-5.4c0-1.201,0-1.801-0.201-2.201c0-0.199-0.199-0.6-0.4-0.6
			c-0.199-0.199-0.398-0.199-0.6-0.199c-0.4,0-0.6,0-1,0.199c-0.4,0.201-0.799,0.801-1.4,1.4v6.801c0,0.799,0,1.398,0.201,1.799
			c0.199,0.201,0.6,0.4,1.199,0.6v0.4h-6.6v-0.4c0.6,0,1-0.199,1.199-0.6c0.201-0.199,0.201-0.799,0.201-1.799v-7.201
			c0-1,0-1.6-0.201-1.799c-0.199-0.201-0.6-0.4-1-0.4v-0.4h5.201"/>
		<path d="M353.476,312.459c0-1.4,0-2.4-0.201-3c-0.199-0.6-0.398-1-0.799-1.199c-0.201-0.201-0.4-0.201-0.801-0.201
			s-0.799,0.201-1.199,0.602c-0.6,0.799-0.801,1.799-0.801,3.199v0.4h3.801 M356.675,313.459h-7c0,1.6,0.6,3,1.4,4
			c0.6,0.801,1.4,1.201,2.199,1.201c0.602,0,1-0.201,1.4-0.4c0.4-0.4,1-0.801,1.4-1.6l0.4,0.199c-0.6,1.4-1.4,2.4-2.201,3
			c-0.799,0.6-1.799,0.801-2.799,0.801c-1.801,0-3.201-0.801-4.201-2.201c-0.799-1.199-1.199-2.6-1.199-4.4
			c0-2.199,0.6-3.799,1.801-5c1.199-1.199,2.398-1.799,4-1.799c1.199,0,2.398,0.6,3.398,1.6
			C356.275,309.66,356.675,311.26,356.675,313.459z"/>
		<path d="M362.476,307.459v1.6c0.6-0.799,1.199-1.199,1.799-1.6c0.602-0.4,1.201-0.4,2-0.4c0.801,0,1.602,0.201,2,0.602
			c0.602,0.398,0.801,1,1,1.6c0.201,0.6,0.201,1.4,0.201,3v5c0,1,0,1.6,0.199,1.799c0.201,0.201,0.6,0.4,1.201,0.4v0.4h-6.4v-0.4
			c0.4,0,0.799-0.199,1-0.6c0.199-0.199,0.199-0.801,0.199-1.6v-5.6c0-1,0-1.602-0.199-2c0-0.201-0.201-0.4-0.4-0.602
			c-0.199-0.199-0.4-0.199-0.6-0.199c-0.801,0-1.4,0.6-2.201,1.6v6.801c0,1,0,1.6,0.201,1.799c0.199,0.201,0.6,0.4,1,0.4v0.4h-6.4
			v-0.4c0.6,0,1-0.199,1.199-0.6c0.201-0.199,0.201-0.801,0.201-1.801v-7.199c0-1,0-1.6-0.201-1.801c-0.199-0.199-0.6-0.398-1-0.398
			v-0.4h5.201"/>
		<path d="M376.275,302.859v4.6h3v1.4h-3v7.801c0,0.799,0,1.199,0,1.398c0,0.201,0.201,0.4,0.4,0.602
			c0.201,0.199,0.4,0.199,0.4,0.199c0.6,0,1.199-0.4,1.6-1.4l0.4,0.201c-0.801,1.799-2,2.6-3.6,2.6c-0.801,0-1.4-0.201-2-0.6
			c-0.6-0.4-1-1-1-1.4s-0.201-1.201-0.201-2.4v-7h-1.6v-0.4c1.201-0.799,2-1.6,2.801-2.6c0.799-0.801,1.4-1.801,2-3H376.275"/>
	</g>
	<g>
		<path d="M18.075,350.26c0,0.199-0.199,0.199-0.4,0.4"/>
		<path d="M21.275,325.459c0.4,0,0.602-0.4,0.602-0.6c0-0.4-0.201-0.6-0.602-0.6c-0.398,0-0.6,0.4-0.6,0.6
			C20.675,325.26,20.876,325.459,21.275,325.459"/>
		<path d="M44.075,298.26h7.199v12.799h-7.199V298.26z M51.275,317.059c-0.199,1.4-0.6,2.602-1.6,3.201l-5.6,3.4v-12h7.199V317.059z
			 M36.675,298.26h6.6v12.799h-6.6V298.26z M43.275,324.059l-2.6,1.602l0,0c-0.199,0.199-0.4,0.199-0.6,0.199s-0.6,0-0.801-0.199
			l-2.6-1.602V311.66h6.6V324.059z M33.876,306.26h2v4.6h-2V306.26z M36.075,323.66l-5.6-3.4c-1-0.6-1.4-1.801-1.6-3.201v-5.398
			h7.199V323.66z M28.876,298.26h2.6v5h-2.6V298.26z M31.876,300.059l0.199-0.398l-0.199-0.4h0.398l0.201-0.4l0.199,0.4h0.4
			l-0.199,0.4l0.199,0.398h-0.4v0.4l-0.4-0.199l-0.398,0.199V300.059L31.876,300.059z M33.675,305.26
			c0-0.201-0.199-0.201-0.199-0.201c-0.201,0-0.4,0.4-0.4,0.4c-0.199,0-0.199,0-0.199-0.199c0-0.201,0.199-0.201,0.398-0.4
			c-1.6,0-1.6,0.801-1.799,0.801c-0.4,0,0.4-0.801,0.6-1c-0.4,0-0.4-0.4-0.801-0.602c0.201-0.199,0.201-0.199,0.4,0
			c0-0.199,0.201-0.398,0.4-0.398c0.6,0,0.4,0.6,0.6,0.6c0.201,0,0-0.6,0.4-0.6c0.6,0,1.6,1.799,0.801,1.799
			C33.476,305.459,33.675,305.26,33.675,305.26z M32.075,309.059h0.4l0.199-0.398l0.201,0.398h0.398l-0.199,0.4l0.199,0.4h-0.398
			v0.4l-0.4-0.201l-0.4,0.201v-0.4h-0.4l0.201-0.4L32.075,309.059z M29.275,304.26h0.4l0.201-0.4l0.199,0.4h0.4l-0.201,0.4
			l0.201,0.199h-0.4v0.4l-0.4-0.201l-0.4,0.201v-0.4h-0.398l0.199-0.4L29.275,304.26z M28.876,306.26h2.6v4.6h-2.6V306.26z
			 M34.476,304.859l0.199-0.4l-0.199-0.4h0.4l0.199-0.398l0.199,0.398h0.4l-0.199,0.4l0.199,0.4h-0.4v0.4l-0.398-0.201l-0.4,0.201
			V304.859L34.476,304.859z M33.876,298.26h2v5h-2V298.26z M51.876,297.66L51.876,297.66H28.075l0,0l0,0v19.199
			c0,1.801,0.801,3.4,1.801,4l9.199,5.4c0.199,0.199,0.6,0.4,0.801,0.4c0.199,0,0.6-0.201,0.799-0.201l9.4-5.6
			c1-0.6,1.801-2.199,1.801-4V297.66L51.876,297.66z"/>
		<path d="M35.675,316.059c0,0-1,0.201-0.6,0.201c0-0.201,0.6-0.801,0.801-1c0-0.4-0.4,0-0.801,0.199c1.4-2,0.4-1.199-0.199-1
			c1.199-1.4,0.799-1.199,0-0.799c0.799-0.602,0.799-1.201,0.799-1.4c-0.6,0.799-1.199,0.799-1.199,1.6c0,0.6-0.201,1.4-0.4,1.801
			c-0.4,0.398,0-1.4-1-1.4c-0.199,0-1,0-1.199,0.4c0.199,0,0.398,0.398,0.398,0.6c0,0.199,0.201,0.799-0.199,0.799s-0.6-0.6-0.6-1
			c0-0.398,0-0.199,0-0.799c0-0.801-1.201-1.801-1.801-1.801c0,0.6,0.6,0.6,0.6,1.4c-0.199,0-0.799-0.6-0.799-0.199
			c0,0.398,0.4,0.398,0.4,0.799s-0.602-0.199-0.602,0.201c0,0.199,0.201,0.199,0.4,0.6c-0.199,0-0.4,0-0.4,0s0,0.199,0.201,0.199
			c0,0-0.201,0.201-0.201,0.6c0,1.602,1,2.201,1.602,2.201c0.398,0,0.398-0.4,0.398-0.6c0,0.199,0.201-0.201,0.201,0.398
			c0,0.4-0.4,0.201-0.4,0.602c0,0.6,0.801,0,0.801,0.6c0,0.799,0,0.799,0,1c0,0.199,0.799-0.201,0.799-0.4
			c0.201,0,0.201,0.6,0.6,0.6c0.201,0,0.201-0.6,0.4-0.6c-0.199,0,0.801,0.6,0.801,0.199c0-0.799-0.201-0.398-0.201-0.799
			s1-0.4,0.801-0.6c-0.199-0.201-0.199,0-0.4-0.4c0,0-0.799-1.201,0.201-0.6C35.675,318.26,35.675,316.26,35.675,316.059"/>
		<path d="M61.075,321.059c0.4,0,0.801-0.398,0.801-0.6c0-0.199-0.4-0.6-0.801-0.6s-0.801,0.4-0.801,0.6
			C60.275,320.66,60.675,321.059,61.075,321.059"/>
		<path d="M57.876,323.059c0.398,0,0.799-0.398,0.799-0.6c0-0.4-0.4-0.6-0.799-0.6c-0.4,0-0.801,0.4-0.801,0.6
			C57.075,322.66,57.476,323.059,57.876,323.059"/>
		<path d="M20.275,327.26c0.4,0,0.801-0.4,0.801-0.6c0-0.4-0.4-0.602-0.801-0.602c-0.398,0-0.799,0.4-0.799,0.602
			C19.476,327.059,19.876,327.26,20.275,327.26"/>
		<path d="M22.675,327.459c0.4,0,0.801-0.4,0.801-0.6s-0.4-0.6-0.801-0.6s-0.799,0.4-0.799,0.6S22.275,327.459,22.675,327.459"/>
		<path d="M90.476,294.66c1.199,1.398,1.4,3.6,0.6,5.199c-0.4,0-0.4-0.6-0.4-1c-0.799-1.6-1.4-3.6-0.799-5.199
			C90.275,293.66,90.075,294.459,90.476,294.66"/>
		<path d="M-8.925,296.66c-0.199,1-0.199,2.398,0,3.398c-0.199,0.201-0.199-0.199-0.4-0.199c-1.6-1.199-0.799-3.4-1.199-5.199
			c0-0.201,0.199-0.201,0.4,0C-9.524,295.059-9.124,295.66-8.925,296.66"/>
		<path d="M94.075,296.66c0.199,0.398-0.199,1-0.6,1.199c-0.4,0-0.801-0.199-1-0.4c-0.201-0.4,0.199-0.799,0.6-1
			C93.275,296.26,93.675,296.26,94.075,296.66"/>
		<path d="M-11.524,298.459c0,0.4-0.201,0.801-0.6,1c-0.201,0-0.602,0-0.801-0.199c-0.199-0.201-0.199-0.6-0.199-0.801
			c0.199-0.199,0.398-0.4,0.799-0.4S-11.725,298.26-11.524,298.459"/>
		<path d="M95.675,299.26c0,0.199,0,0.4,0,0.6c-0.199,0.4-0.799,0.6-1.199,0.4c-0.201-0.201-0.4-0.4-0.4-0.801s0.4-0.6,0.801-0.799
			C95.075,298.859,95.476,299.059,95.675,299.26"/>
		<path d="M93.275,299.26c0.4,0.199,0,0.6,0,0.799c-0.199,0.201-0.6,0.602-0.799,0.4c-0.201-0.199-0.4-0.199-0.6-0.6
			c0-0.4,0.199-0.801,0.6-1C92.876,299.059,93.075,299.26,93.275,299.26"/>
		<path d="M90.275,299.859c0,0.4,0,1-0.6,1.199c-0.4,0.201-0.799-0.199-1-0.6c0-0.4,0.201-0.799,0.6-1
			C89.675,299.459,90.075,299.66,90.275,299.859"/>
		<path d="M-6.925,300.059c0.199,0.4-0.199,0.602-0.6,0.801c-0.201,0-0.6-0.199-0.801-0.4c-0.199-0.199,0-0.6,0.201-0.799
			C-7.725,299.459-7.124,299.66-6.925,300.059"/>
		<path d="M-9.524,300.26c0,0.4-0.201,0.6-0.4,0.799c-0.4,0.201-0.6-0.199-0.801-0.398c-0.199-0.4,0-0.801,0.4-1
			C-9.925,299.459-9.725,300.059-9.524,300.26"/>
		<path d="M80.275,300.459c0.4,0.801,0.801,2,0.801,3c-0.199,0.801,0.199,1.801-0.4,2.4c-0.6-0.199-0.6-1-1-1.199
			c-0.799-1.4,0-3.201,0.201-4.602C80.075,299.859,80.075,300.26,80.275,300.459"/>
		<path d="M-11.524,300.859c0.199,0.6-0.201,0.801-0.6,1c-0.4,0.199-0.801-0.199-1-0.6c0-0.4,0.199-0.801,0.6-1
			C-12.124,300.26-11.725,300.459-11.524,300.859"/>
		<path d="M86.675,302.059c0.6,1.201,0.6,2.602,0.201,4l-0.201,0.201c-0.6-1.201-1.4-2.201-1.799-3.4c0-0.801,0.199-1.6,0.6-2.4
			c0.199-0.199,0.4,0,0.6,0.201C86.075,301.26,86.275,301.859,86.675,302.059"/>
		<path d="M92.075,301.459c0,0.4-0.199,0.801-0.6,1c-0.4,0-0.801,0-1-0.6c-0.201-0.4,0.199-0.801,0.4-1
			C91.275,300.66,91.876,301.059,92.075,301.459"/>
		<path d="M-9.524,302.66c0,0.398-0.201,0.799-0.6,0.799c-0.4,0.201-0.602-0.199-0.801-0.199c-0.199-0.4-0.199-0.6,0-1
			c0.199-0.201,0.4-0.201,0.6-0.4C-9.925,302.059-9.524,302.26-9.524,302.66"/>
		<path d="M-7.524,302.459c0.199,0.4-0.201,0.6-0.4,0.801c-0.4,0.199-0.801-0.201-1-0.6c0-0.4,0.199-0.602,0.4-1
			C-8.124,301.859-7.725,302.059-7.524,302.459"/>
		<path d="M93.075,302.26c0,0.6-0.801,1-1,1.6c-0.4,1.199-1.4,2-2.6,2.4c-0.201,0.199-0.6,0.6-1,0.6c0-0.801,0.6-1.6,1.199-2.4
			C90.675,303.459,91.876,302.66,93.075,302.26"/>
		<path d="M-10.325,304.059c0.6,0.801,1,1.4,1.801,2c0,0.201,0,0.4-0.201,0.4c-2-0.199-3.398-2.199-4.398-3.6
			c0.199-0.4,0.6,0,1-0.199C-11.524,303.26-10.725,303.459-10.325,304.059"/>
		<path d="M93.675,304.66c0,1.799-1,3.6-2.6,4.6c-0.4,0.199-1,0.6-1.4,0.4c0.801-1.801,2.201-3.201,3.6-4.801h0.4"/>
		<path d="M85.675,305.859c0.201,0.6-0.199,1-0.799,1.199c-0.4,0-0.801-0.398-1-0.6c0-0.4,0.199-0.799,0.6-1
			c0.199-0.199,0.4-0.199,0.4-0.199C85.476,305.459,85.476,305.66,85.675,305.859"/>
		<path d="M-12.524,306.26c0.799,0.6,1.4,1.199,2.199,2c-0.6,0.4-1.199,0-1.799,0c-1.4-0.6-2.4-1.801-3.801-2.201
			c0-0.398,0.6-0.199,0.801-0.398C-14.124,305.66-13.524,306.059-12.524,306.26"/>
		<path d="M31.876,293.859c-2.4-1-3.801,1.6-6.201,1.199c-0.199,0.201-0.199,0.4-0.4,0.602c-0.199,0.199-0.398,0-0.398,0
			c-0.201-1-0.4-2-0.602-2.801c-0.199-0.4-0.199-1-0.398-1.4c-1.4-3.6,3.199-0.799,4.199-3c0.801-1.799-1.6-2-2.199-3.4v-0.6
			c-0.602-0.6-1.4-0.799-1.801-1.799c0.199-1,0.4-2.201,0.199-3.201c0-0.199-0.199-0.6-0.6-0.4c-0.799,1-1.4,2-2.199,3
			c-0.801-0.6-1.6-1.398-2.4-1.799c-0.6,0-1.199-0.801-2-0.4c-0.199,0.199,0,0.4,0.199,0.6c0,1.6,0.801,3,2,4.201l0.201,0.6
			c-0.801,1.799-0.6,3.6-0.801,5.6c-1.799,4.801-5,9.4-9,12.6c-2.4,2.6-5.199,5.201-5.6,9c-0.199,0.6,0,1.201-0.4,1.801
			c-1.4-0.6-2.799-1.201-3.799-2c-2-1.4-4.602-1.201-5.801-3.6c-0.4-1,0.199-2,0.6-2.602c1.4-1.398,1.201-3.799,0.4-5.398
			c-0.199,0-0.199,0.199-0.4,0.199c-0.199,2.4-2,4.199-1.4,7c0.201,0.801,0.602,1.4,0.801,2c-0.199,0-0.801,0-1-0.199
			c-1-0.201-1.801-0.602-2.801-0.4c-2,0.799-4.6-0.201-6,1.6c-0.199,0-0.6,0-0.398,0.4c1,0,1.799,0.199,2.6,0.199
			c1.4,0.201,2.4-1,3.4-1.6h0.199c0.4-0.4,1.199-0.199,1.6-0.199c2.6,0.199,4.6,1.6,6.801,2.799v0.201c-0.801,0.398-1.801,0.6-2.6,1
			c-1,0.799-2,1.6-2.4,2.799c-0.6,1,0.199,2,0.6,2.801c0,0.4,0,1,0.4,1c1.4-1.4,0-3.201,0.199-4.801
			c0.4-1.199,1.4-1.799,2.801-2.199c2.4-1,4,1,6,2c0,2,0.199,3.799-0.201,5.6c-0.6,0.199-1.398,0.4-2,0.199
			c-3.199,0.201-5.799,2-8.799,3c-1.4,0.4-3,0.4-4.201,1c1,0.201,2.201,0,3.201-0.199c4-0.6,7.199-3.801,11.6-3.199v0.199
			c-0.4,1-1.199,2-2,2.801c-0.199-0.4-0.199-0.801-0.6-1c-0.4-0.201-0.801,0-1,0.398c-0.201,0.201-0.201,0.4,0,0.602
			c0.199,0.398,0.6,0.398,1,0.6c0,0.4-0.6,0.6-0.801,0.799c-1.199,2-3.6,1.201-5,2.602c-0.199,0.199-1,0.398-0.6,1
			c1.6,0.199,3.199-0.201,4.199-1c1.602-1.801,3.201-3.4,4.602-5c0.199,1.398-0.201,2.799-1,3.799c-0.4-0.199-0.602-0.6-1.201-0.6
			c-0.4,0-0.799,0.6-0.799,0.801c0.199,0.199,0.398,0.6,0.6,0.799c-1.4,1-3.201,1-4.801,1.6c-3,0.4-6,0.602-9,0.602
			c-1.4,0-3.199,0.398-4.4,0c-1.6,0.199-3.199-0.201-4.6,0.6c-0.199,0.199,0,0.4,0,0.6c2,1.199,4.6,0.199,6.6,0.6h16.4
			c1.201,0,2.4,0,3.4-0.6c2.199-1.199,3.199-3.4,4.4-5.6c0.4-0.801,0.799-1.6,0.799-2.6c0.4-1.4,1.801-2.4,3.201-2.602
			c0.199,2.201-0.201,4.4-0.801,6.4c-0.199,1.4-1.199,2.6-0.6,4c0.199,0.6,0.801,0.6,1.4,0.801c5,0,10-0.201,15.4,0
			c1,0.199,1.799,0.4,2.799,0.4c0-0.201,0.4-0.201,0.201-0.4c-0.201-0.4-0.4-1-1-1.201c0-0.199-0.4-0.199-0.602-0.398
			c-2.6-1.602-5.799-0.801-9-0.602c-1.6,0.201-3.199,0.4-4.6-0.398c-0.6-0.801-0.199-3.201-0.199-3.201c0-1,2.199-7.6,2.6-8
			c0-0.6,0.4-1.199,0.199-2c0.4-0.799,0.201-2,0.201-2.799c0.199-1.4,0.799-2.602,1.199-3.801c0.201-0.6,0.4-1.199,0.801-2
			c0.199-0.801,0.4-1.6,0.799-2.199c1.4,0.799,2.602,0.799,3.4,2.398l0.6,3.4c0,0.201,0.201,0.6,0.4,0.4
			c1-0.801,0.801-2.4,0.801-3.4c0.199-1.199-0.6-2-1-3c-0.201-0.199-0.801-1.199-0.801-1.199c-0.199-1-2.199-1.6-1.799-2.6
			c0.199-1,0.398-1.801,1.398-2.4c0.201,0,0.201,0.199,0.201,0.199l0.4-0.4v-3.398c1.398,0,3.398,0.199,4.799,0.199
			c0.4,0.199,0.6,0.4,1,0.4l0.4-0.4l3.4-0.6C34.075,295.459,33.275,293.859,31.876,293.859"/>
		<path d="M35.675,295.459c0.201,0,0.201,0,0.4,0H35.675"/>
		<path d="M-0.524,307.059c0,0.602-0.201,0.801-0.6,1c-0.4-0.199-0.602-0.199-0.801-0.6s0.199-0.799,0.6-1
			C-1.124,306.66-0.725,306.66-0.524,307.059"/>
		<path d="M-3.325,307.059c0.201,0.201,0.201,0.602,0.201,1c-0.201,0.201-0.801,0.4-1,0.201c-0.201-0.201-0.4-0.6-0.201-0.801
			C-4.124,306.859-3.725,306.66-3.325,307.059"/>
		<path d="M54.476,307.459L54.476,307.459"/>
		<path d="M86.075,308.26c0.199,0.4-0.199,0.799-0.6,1c-0.4-0.201-1-0.201-1-0.801c0-0.4,0.4-0.6,0.6-0.6
			C85.675,307.66,86.075,308.059,86.075,308.26"/>
		<path d="M88.275,308.059c0.201,0.201,0.4,0.602,0,0.801c-0.199,0.199-0.199,0.199-0.398,0.4c-0.4,0-0.801,0-1-0.6
			c0-0.4,0.199-0.602,0.6-0.801S88.075,308.059,88.275,308.059"/>
		<path d="M-13.725,308.66c-0.199,0.6-0.6,0.799-1.199,0.6c-0.199-0.201-0.199-0.4-0.4-0.6c0-0.201,0.201-0.602,0.4-0.801
			C-14.124,308.059-13.925,308.26-13.725,308.66"/>
		<path d="M0.275,309.26c0,0.4-0.398,0.6-0.799,0.799c-0.4,0-0.801-0.199-1-0.6c0-0.4,0.199-0.799,0.4-0.799
			C-0.325,308.459,0.075,308.859,0.275,309.26"/>
		<path d="M-2.124,309.059c0.199,0.201,0.199,0.4,0.199,0.602c-0.199,0.199-0.6,0.6-1,0.398c-0.199-0.199-0.6-0.398-0.4-0.799
			c0.201-0.201,0.4-0.4,0.6-0.6C-2.524,308.66-2.524,308.859-2.124,309.059"/>
		<path d="M94.675,309.459c0,0.4-0.4,0.6-0.6,0.801c-0.4,0.199-0.801,0-1-0.201c-0.199,0-0.199-0.398-0.199-0.6
			c0.199-0.199,0.6-0.4,0.799-0.6C94.275,309.059,94.476,309.26,94.675,309.459"/>
		<path d="M97.476,309.859c-0.201,0.4-0.4,0.801-0.801,0.801c-0.199,0-0.799-0.201-0.6-0.602c0-0.199,0.199-0.6,0.4-0.6
			C96.675,309.26,97.275,309.459,97.476,309.859"/>
		<path d="M-8.925,310.459c0,0.6,0,0.801-0.6,1c-0.201,0.201-0.6,0-0.801-0.199c-0.199-0.201-0.4-0.6-0.199-0.801
			c0-0.4,0.4-0.199,0.799-0.4C-9.325,310.059-9.124,310.26-8.925,310.459"/>
		<path d="M-6.925,310.859c0.199,0.4-0.199,0.4-0.4,0.801c-0.199,0.199-0.4,0.199-0.799,0c-0.201-0.201-0.602-0.602-0.4-1
			C-8.124,310.059-7.124,310.459-6.925,310.859"/>
		<path d="M92.275,310.66c0,0.398-0.398,0.799-0.6,1c-0.4,0-0.799-0.201-0.799-0.602c0-0.398,0.199-0.6,0.398-0.799
			C91.675,310.26,92.075,310.26,92.275,310.66"/>
		<path d="M95.675,311.26c0,0.4,0,0.799-0.4,1c-0.398,0-0.799,0-1-0.201c-0.199-0.199-0.199-0.6-0.199-0.799
			c0.199-0.4,0.6-0.6,1-0.6C95.275,311.059,95.476,311.26,95.675,311.26"/>
		<path d="M-10.524,312.26c0.199,0.4-0.201,0.4-0.4,0.6s-0.6,0-0.801,0c-0.199-0.199-0.199-0.6-0.199-0.801
			C-11.524,311.26-10.725,311.66-10.524,312.26"/>
		<path d="M93.075,313.059c0.199,0,0,0.201,0,0.4c-1,0.6-2.4,0.6-3.4-0.199c-0.4-0.4-1.199-0.6-1.6-1c0.199-0.6,1-0.6,1.4-0.6
			C90.876,311.859,91.675,313.059,93.075,313.059"/>
		<path d="M-8.524,312.66c0,0.398-0.201,0.398-0.201,0.799c-0.199,0.201-0.398,0.201-0.799,0c-0.4-0.199-0.6-0.799-0.201-1
			C-9.325,311.859-8.725,312.26-8.524,312.66"/>
		<path d="M-4.925,312.859c0.199,0.4,0,0.801-0.4,1c-0.199,0.199-0.6,0-0.799-0.199c-0.201-0.201-0.602-0.602-0.201-1
			C-5.925,312.059-5.124,312.459-4.925,312.859"/>
		<path d="M43.075,314.66c0,0.799-1.4-0.201-1.199,1c0.199,0.799,0.398,1.799,0.799,2.398c0.4,0.602,0.201,1.4,0.201,2.201
			c-0.4,0.6-1,1-1.602,1.4c-1.199-0.201-3,0.6-3.398-0.801c-0.201-0.6-0.602-1.199-0.602-2c0.201,0,0.201,0,0.4-0.199
			c0-0.201-0.4-0.4-0.199-0.801c1.4-0.199-0.6-1.4,0.6-1.6c1,1,2.4,0.6,3.4,1.799c0.199,0.201,0.4,0.4,0.6,0.602
			c-0.199-1-0.6-2-0.801-3c-0.199-0.602,0-1,0.4-1.4C42.075,313.459,42.675,314.26,43.075,314.66"/>
		<path d="M-1.325,314.459c0.201,0.4-0.199,0.6-0.4,0.801c-0.398,0.199-0.6-0.201-0.799-0.4c-0.201-0.4,0.199-0.6,0.4-0.801
			C-1.725,314.059-1.524,314.059-1.325,314.459"/>
		<path d="M24.275,314.859c0.4,1.6,0.4,3.4-0.6,4.6c0,0.4,0,0.801-0.4,0.801c-1.199-1.6-0.199-3.801,0.201-5.4
			C23.675,314.66,24.275,314.459,24.275,314.859"/>
		<path d="M59.876,315.66c0.6,1.199,0.6,2.799,0,3.799l-0.4,0.4c-0.4-1-0.801-2-1-3c0.199-0.801,0.4-1.4,0.4-2.199
			C59.876,314.459,59.675,315.26,59.876,315.66"/>
		<path d="M2.075,316.059c-0.199,0.602-1,0.602-1.4,1c-1,0.801-2.4,1-3.6,0.801c1-1.6,2.801-2.4,4.801-2
			C1.675,315.859,1.876,315.859,2.075,316.059"/>
		<path d="M-15.124,317.66c1.6,1,2,2.6,2.799,4c0.201,0.199,0.6,0.199,0.4,0.6c-0.4,0.199-0.6-0.201-1.199-0.201
			c-1.602-0.799-2.602-2.398-2.602-4.398C-15.524,317.66-15.325,317.66-15.124,317.66"/>
		<path d="M58.275,318.859c0,0.4,0,0.801-0.398,1c-0.4,0.199-0.801-0.199-1-0.6c-0.201-0.201,0.199-0.4,0.199-0.6
			C57.476,318.26,58.075,318.459,58.275,318.859"/>
		<path d="M75.876,321.059c0-0.799,0.199-1.6,0.199-2.398c0.199-0.201,0.199-0.602,0.199-0.801c1-1.4,3-1,4.602-0.801
			c0.6,0.4,1.398,0.201,2,0.4c0.199-0.199,0.799-0.199,1-0.199c1.398-0.801,0.398-2.201,0.6-3.4l-0.6-1.199
			c-0.201-0.201-0.201-0.602-0.4-0.801c-0.201-0.199-0.4-0.801-0.6-1.199c-0.801-1.801-2-2.801-3.201-4.4
			c-2.199-2.801-5.4-4.4-8.799-5.4c-3.201-1.199-6.602,0.4-9.602,1.4c-1-0.201-1.398-1-1.6-1.801c-0.199-1.6,0.201-3.199,0.801-4.4
			c0.199-1,0.799-1.799,1.199-2.799c0.801-2.4,1.6-4.6,1.801-7.201c0-1.6-1-2.6-2.201-3.398c-0.799-0.201-1.799-0.201-2.199,0.398
			c-0.6,1.201-1.801,1.801-2.6,2.4c0,0.801,0.799,0.201,1,0.6c1,0.201,2-0.199,2.6,0.4c0,1.6-0.801,3-1.801,4.4
			c-1.398,2-3,4.199-3.799,6.6l-0.201-0.199l0.201,10.199c1.4,2.201,3,4.801,5.4,5.6c1.398,1,3,2.4,4.799,1.4c1-0.199,1,1,1.4,1.6
			c0.6,1.602-0.6,2.602-0.801,4l-0.799,2.4c-1.201,2.4-2.4,5-4.201,7c-0.6,0-1,0.6-1.6,0.801c-0.4,0.4-1,0.199-1.4,0.199
			c-1.199,0.6-3.199,0.201-4,1.4c0,0.199,0.201,0.199,0.4,0.199c2.6,0,5.4,0.201,8,0c0.4-0.199,0.6-0.398,0.6-0.799
			c-0.398-0.801,0.201-1.4,0.4-1.801c0.201-1,0.801-1.6,1.201-2.6c0.799-1.801,1.799-3.4,2.799-5.199l1.201-2
			c0.199-0.801,0.799-1.602,1.199-2.4c0.4-0.4,0.6-0.801,0.801-1.201c0-0.398-0.201-0.6-0.4-0.799
			c0.199-0.201,0.799-0.201,1.199-0.201c1,0.602,2.201,1.602,2.4,2.801l0.4,1l0.199,0.6v1.4l0.201,1.199c0.199,2-0.201,4-0.4,6
			c-0.801,2.4-3.4,2.201-5.4,2.801c-0.4,0.4-1.4,0.199-1.4,1c2.4,0.6,5.201,0.199,7.801,0.199c0.4-0.199,0.4-0.6,0.799-1
			c0-0.6,0.602-1,0.4-1.6c-0.4-0.6,0-1.6-0.199-2.4c0-0.199,0-0.6,0-0.799c0.4-1.201,0.199-2.6,0.6-3.801L75.876,321.059"/>
		<path d="M96.275,319.459c-1.398,1.801-2.799,4-5,4.6c-0.199,0-0.398,0-0.398-0.199c1.398-1.6,2.199-3.801,4.398-4.4
			C95.476,319.459,95.876,319.26,96.275,319.459"/>
		<path d="M-17.124,321.459c-0.201,0.201,0,0.6-0.4,0.6c-0.4,0.201-0.801,0-0.801-0.398c-0.199-0.4,0.201-0.801,0.6-1
			C-17.524,321.059-17.124,321.059-17.124,321.459"/>
		<path d="M-5.124,322.059c0.199,0.4-0.201,0.4-0.602,0.4c-1.799,0.6-3.6,0-4.799-1.199c0-0.201,0-0.4,0.199-0.4
			C-8.524,321.459-6.524,321.059-5.124,322.059"/>
		<path d="M-14.925,321.459c0,0.201,0.199,0.4,0,0.6c-0.199,0.4-0.6,0.4-1,0.4c-0.199-0.199-0.4-0.199-0.6-0.6
			c0-0.4,0.4-0.6,0.799-0.801C-15.325,321.26-15.124,321.26-14.925,321.459"/>
		<path d="M24.075,321.859c0,0.4-0.199,0.6-0.4,0.801c-0.4,0-0.799,0-0.799-0.4c-0.201-0.201,0-0.801,0.199-0.801
			C23.275,321.26,23.876,321.459,24.075,321.859"/>
		<path d="M97.876,321.859c0.199,0.4-0.201,0.6-0.602,0.801c-0.199,0.199-0.6,0-0.799-0.201c0-0.199-0.201-0.4-0.201-0.6
			c0.201-0.4,0.602-0.6,1-0.6C97.476,321.66,97.675,321.66,97.876,321.859"/>
		<path d="M100.675,321.859c0.201,0.4,0,0.6-0.199,1c-0.201,0.199-0.4,0.4-0.801,0.199c-0.199-0.199-0.6-0.398-0.6-0.799
			s0.4-0.6,0.6-0.801C100.075,321.26,100.275,321.859,100.675,321.859"/>
		<path d="M-18.925,323.059c0,0.201-0.199,0.4-0.199,0.801c-0.201,0-0.4,0.199-0.602,0.199c-0.199-0.199-0.398-0.398-0.6-0.6
			c0-0.4,0.4-0.799,0.801-0.799C-19.325,322.459-18.925,322.66-18.925,323.059"/>
		<path d="M68.675,323.059c0,0.201,0,0.4,0,0.602c-0.199,0.398-0.6,0.6-1,0.398c-0.199-0.199-0.6-0.6-0.4-0.799
			C67.476,322.66,68.275,322.459,68.675,323.059"/>
		<path d="M-12.124,323.66c0,0.199-0.201,0.6-0.602,0.6c-0.398,0-0.398-0.201-0.799-0.4c0-0.4,0-0.801,0.4-1
			C-12.725,322.66-12.124,323.059-12.124,323.66"/>
		<path d="M-16.124,323.66c0.199,0.398-0.201,0.799-0.4,1c-0.4,0.199-1-0.201-1.201-0.602c0-0.398,0.4-0.799,0.801-1
			C-16.524,323.059-16.325,323.459-16.124,323.66"/>
		<path d="M71.275,323.66c0,0.398,0,0.799-0.398,1c-0.4,0.199-1-0.201-1.201-0.602c0.201-0.398,0.201-0.799,0.801-0.799
			C70.876,323.059,71.075,323.26,71.275,323.66"/>
		<path d="M-14.124,323.859c0.199,0.199-0.201,0.4-0.201,0.6c-0.199,0-0.4,0.201-0.6,0.201c-0.199-0.201-0.4-0.201-0.6-0.602
			c0-0.398,0.199-0.6,0.6-0.799C-14.524,323.059-14.325,323.459-14.124,323.859"/>
		<path d="M95.476,324.059c-0.201,0.4-0.4,0.602-0.801,0.602s-0.6-0.201-0.799-0.4c-0.201-0.201-0.201-0.6,0-0.801
			C94.476,323.059,95.476,323.26,95.476,324.059"/>
		<path d="M98.675,324.26c-0.199,0.4-0.6,0.6-1,0.799c-0.4-0.199-0.799-0.398-0.4-1c0.201-0.199,0.201-0.398,0.4-0.398
			C98.275,323.459,98.675,323.859,98.675,324.26"/>
		<path d="M79.075,324.66c0.199,0.6-0.199,0.799-0.6,1c-0.201,0-0.6-0.201-0.801-0.4c0-0.4,0.201-0.801,0.6-1
			C78.476,324.059,78.675,324.26,79.075,324.66"/>
		<path d="M67.476,325.059c0.199,0,0.199,0.4,0,0.602c-0.201,0.199-0.6,0.6-1,0.398c-0.201-0.199-0.4-0.398-0.4-0.799
			C66.476,324.66,67.275,324.66,67.476,325.059"/>
		<path d="M69.876,325.459c0,0.4,0,0.6-0.4,0.6c-0.201,0.201-0.6,0-1-0.199c0-0.199-0.201-0.4,0-0.6c0.199-0.201,0.4-0.201,0.6-0.4
			C69.476,325.059,69.675,325.059,69.876,325.459"/>
		<path d="M-0.524,325.459c0.199,0.201,0,0.6,0,0.801c-0.201,0.199-0.6,0.4-1,0.199c-0.4-0.199-0.4-0.799-0.201-1
			c0.201,0,0.201-0.4,0.602-0.4C-1.124,325.059-0.925,325.26-0.524,325.459"/>
		<path d="M83.476,325.66c0,0.398-0.4,0.6-0.6,0.6c-0.4,0.199-0.801-0.201-1-0.6c0-0.201,0.199-0.4,0.398-0.602
			C82.675,324.859,83.075,325.26,83.476,325.66"/>
		<path d="M81.275,325.66c0.201,0.398-0.199,0.6-0.398,0.799c-0.201,0.201-0.602,0-1-0.199c-0.201-0.201-0.201-0.4-0.201-0.6
			c0.201-0.201,0.4-0.4,0.6-0.602C80.675,325.059,81.075,325.26,81.275,325.66"/>
		<path d="M99.876,326.059c0,0.602-0.602,0.201-1,0.4c-1.801,1-4,0.201-5.602-0.4c0.201-0.6,0.801-0.398,1-0.6
			C96.275,324.459,98.075,325.859,99.876,326.059L99.876,326.059"/>
		<path d="M-13.725,325.66l-0.199,0.199c-1.6,1-3.6,1.6-5.4,1l-0.199-0.199C-17.925,325.459-15.925,325.059-13.725,325.66
			L-13.725,325.66"/>
		<path d="M87.675,325.859c0,0.4-0.199,0.6-0.4,0.801c-0.398,0.199-1,0-1-0.4c-0.199-0.4,0.201-0.6,0.602-0.801
			C87.075,325.459,87.476,325.459,87.675,325.859"/>
		<path d="M-6.325,326.059c-0.199,0.4,0,0.602-0.6,0.801c-0.4,0.199-1-0.199-1-0.6c-0.199-0.4,0.199-0.6,0.4-0.801
			C-6.925,325.26-6.524,325.66-6.325,326.059"/>
		<path d="M-9.325,326.26c0.201,0.199-0.199,0.4-0.199,0.6c-0.201,0.199-0.6,0.199-0.801,0.199c-0.199-0.199-0.6-0.6-0.4-1
			c0.201-0.199,0.4-0.398,0.602-0.398C-9.725,325.66-9.325,325.859-9.325,326.26"/>
		<path d="M90.476,327.26c0,0.4-0.4,0.6-0.6,0.799c-0.4,0-0.602-0.199-0.801-0.398c-0.199-0.201,0-0.602,0.199-0.801
			c0-0.199,0.4-0.199,0.602-0.199C90.275,326.66,90.476,326.859,90.476,327.26"/>
		<path d="M-12.325,326.66c0.201,0.398-0.199,0.398-0.199,0.799c-0.201,0.801-0.6,1.201-1,1.801c-0.801,1-2,1-3,1.199l-0.201-0.4
			C-15.524,328.66-14.124,327.459-12.325,326.66L-12.325,326.66"/>
		<path d="M88.476,327.66c0,0.6-0.4,0.6-0.6,0.799c-0.4,0-0.602-0.199-0.801-0.6s0.199-0.6,0.6-0.801
			C88.075,327.059,88.275,327.26,88.476,327.66"/>
		<path d="M-7.524,327.66c0,0,0,0.199,0.199,0.199c0,0.4-0.4,0.6-0.6,0.801c-0.4,0-0.6-0.201-1-0.4c-0.199-0.4,0-0.801,0.4-1
			C-8.124,327.26-7.725,327.26-7.524,327.66"/>
		<path d="M96.075,328.859c0.4,0,0.4-0.6,1-0.6c0.4,0,0.801,0.199,1,0.4c0.199,0.6-0.199,0.799-0.6,1
			c-0.201,0.199-1-0.201-0.801,0.199c0.201,0.199,0.6,0.6,0.6,0.801c0,0.199-0.398,0.199-0.398,0c-1.201-0.602-2.4-1.4-3-2.602
			c-0.201-0.398-1-0.6-0.602-1C94.476,327.26,95.476,328.26,96.075,328.859"/>
		<path d="M100.075,327.66c0.199,0.199,0.199,0.6,0,0.799c-0.199,0.4-0.801,0.201-1.199,0.201c-0.201-0.201-0.4-0.4-0.4-0.801
			c0.199-0.199,0.4-0.4,0.6-0.6C99.476,327.26,99.876,327.459,100.075,327.66"/>
		<path d="M85.075,329.859c0.4,0.4,0.801,1.199,1,1.6c0,0.201-0.199,0-0.4,0c-1.4-0.799-3.199-1.6-3.799-3.4
			c-0.201-0.199-0.4-0.398-0.4-0.6c1-0.199,2.199,0.6,2.799,1.201C84.476,329.26,84.876,329.459,85.075,329.859"/>
		<path d="M-9.925,328.26c0.199,0.4-0.199,0.6-0.4,0.799c-0.4,0-0.799,0-1-0.398c-0.199-0.4,0.201-0.801,0.6-1
			C-10.325,327.66-10.124,328.059-9.925,328.26"/>
		<path d="M90.275,329.26c0,0.199-0.199,0.4-0.398,0.6c-0.4,0-0.602,0.199-1-0.199c0-0.201-0.201-0.602,0-0.801
			C89.275,328.459,89.876,328.859,90.275,329.26"/>
		<path d="M100.675,329.859c0.201,0.6-0.199,0.801-0.6,1s-0.801-0.199-1-0.4c-0.199-0.199,0-0.6,0-0.799
			c0.199-0.201,0.6-0.4,1-0.201C100.275,329.459,100.476,329.66,100.675,329.859"/>
		<path d="M71.876,335.66c0,0.6-1,0.398-1.201,0.799c-1.199,0.6-2.799,0.6-4.4,0.6v-0.199
			C67.675,335.459,69.876,335.059,71.876,335.66"/>
		<path d="M11.275,337.459c0,0.4-0.199,0.6-0.6,0.801c-0.199,0-0.6-0.201-0.799-0.4c-0.201-0.6,0.199-0.801,0.6-1
			C10.876,336.859,11.075,337.059,11.275,337.459"/>
		<path d="M71.075,337.859c0,0.4-0.199,0.801-0.6,1c-0.4,0-0.6-0.199-1-0.199c-0.201-0.201,0-0.4-0.201-0.602
			C69.675,337.059,70.876,337.059,71.075,337.859"/>
		<path d="M79.476,338.059c-1,0.602-2.201,1.4-3.6,1.4h-2.201l-0.199-0.199c1.4-1.6,3.799-1.6,6-1.6V338.059"/>
		<path d="M-0.124,339.059c0,0.4-0.201,0.602-0.602,0.801c-0.398,0-0.799,0-0.799-0.4c-0.201-0.4,0-0.799,0.4-1
			C-0.725,338.26-0.325,338.66-0.124,339.059"/>
		<path d="M1.876,339.459c0.199,0.201,0,0.4-0.201,0.6c-0.199,0.201-0.6,0.201-0.799,0c-0.201-0.199-0.4-0.398-0.201-0.799
			c0.201-0.201,0.4-0.201,0.6-0.4C1.476,339.059,1.876,339.26,1.876,339.459"/>
		<path d="M-13.925,343.66c-0.4,0.6-1-0.201-1.6-0.4c-1.4-0.801-1.4-2.4-2.801-3.4c0.201-0.6,0.6,0,0.801,0
			c0.199,0.199,0.6,0.4,0.799,0.4C-15.325,341.059-14.925,342.459-13.925,343.66"/>
		<path d="M41.075,342.859c-0.199,0.6-0.4,1-0.4,1.4h-0.199c0.199-0.6-0.4-1-0.4-1.6c-0.4-0.602-0.4-1.201-0.6-1.602
			c-0.4-0.6,0.4-1,0.6-1.398c0.6,0.199,0.801,0.799,1.199,1.199C41.476,341.66,41.075,342.26,41.075,342.859 M107.075,327.459
			c-0.6-1.199-1.801-1.799-3.199-1.799c-1,0-1.801,0.799-2.4,1.799c-0.201,1,0,1.801,0.799,2.4c0.201,0.199,0.602,0,0.801-0.199
			c0.199-0.602-0.4-0.602-0.4-1c-0.199-0.602,0-1,0.4-1.4s1.199-0.201,1.6-0.201c0.6,0.4,1,0.602,1.201,1.201
			c0.199,0.799,0.199,1.6,0,2.199c-0.4,1-1.4,1.801-2.602,2c-3.199,0.4-41,0.4-41,0.4c-4.398,0.4-9.6-0.801-13.398,1.6
			c-1.801,0.801-2.602,2.801-3,4.4c-1.201,1-2.4,2.199-3.201,3.4l-0.199-0.4c0.199-1,0.6-1.801,0.799-2.801
			c0.602-0.799,0.602-2,1-2.799c1.602-2.6,3-5.201,5.602-7c1-1.4,2.799-1.201,4.398-1.201c1.801,0.801,3.602,1,5.801,0.801
			l0.199-0.199c-0.6-0.602-1.6-0.801-2.199-1.201c-1.6-0.799-3.199,0.201-5,0.201l-0.199-0.201c1.6-1.199,3.398-2,5.199-2.799
			c1.4-0.801,3-1.201,4.6-1.801c0.6,0,1.201-0.6,1.801-0.199l2.199-0.602c0,0,0.201,0.201,0.4,0.201c1.801-0.6,4.199,0,6.4,0
			l0.199,0.199l2,0.6c0.801,0,1,1,1.801,1c0.4-0.6-0.4-0.799-0.6-1.199c1-0.199,2,0,2.799,0.4l-0.4,0.4
			c-0.199,0.398,0.201,0.799,0.602,1c0.199,0,0.398-0.201,0.799-0.201c0.6-0.4,0-0.799,0.201-1c3,0.6,6,1.201,8.799,2.6
			c0.801,0.201,1.6,0.801,2.4,0.801c-0.801-0.801-2-1.199-3.199-1.6c-0.801-0.4-1.801-0.4-2.201-1c0.201-0.201,0.4-0.201,0.6-0.201
			c1.4-0.199,2.602-1.199,3.602-2.398c0-0.201,0.6-0.201,0.6-0.602c-0.4-0.398-1,0.201-1.4,0c-1.801,0.4-2.4,2.4-4.199,2.801
			c-2.201-0.6-4.201-1-6.4-1.6c-1-0.201-2.201-0.201-3.201-0.6l-2.799-0.801h-4.201l-0.199-0.199c1.4-0.4,2.801-1.201,4.199-1.602
			l11.201-5.199c1.199-1,2.199-2.199,3.199-3.4c0-0.4-0.199-0.6-0.4-0.799c-0.199-0.201-0.6,0-0.799,0.199c-0.6,0.4,0,0.801,0,1.199
			c-0.6,0.602-1.201,1.201-2,1.602c-0.201,0-11.4,5.199-11.4,5.199c-1.6,0.801-3.4,1.6-5,1.801l-2.4,0.398
			c-0.199,0.602-0.6,0.801-1,1c-0.6,0.201-1.199,0.602-2,0.602c-5.4,2-11,4.398-15.199,8.6c0.199-0.6,0.4-1.201,0.4-1.801
			s0-1.4-0.4-1.799c0-0.201-0.4-1-0.4-1.201l-0.6,0.4c-0.4,1-0.801,2.6-0.4,3.6c0.199,0.801,0.801,1.6,0.199,2.201
			c-2,2.398-3.199,5.398-4.398,8.199c-0.4,0-0.801-0.6-1-1c1.398-1.801,2.6-3.801,3-6.199c0.199-0.201,0-0.801,0.398-1
			c0-0.602,0.4-1.4,0-1.801c0.201-1-1.199-1.801-0.199-2.4l-0.801,0.4c-1.799,2.4,1,5.801-1.199,8.199v0.201
			c-0.6,0.799-0.801,1.6-1.6,2c-1-0.4-1.4-1.6-2-2.4c-1-0.801-1-2.6-0.4-3.801c0.4-1.199-0.199-2.199-0.4-3.398l-0.4-0.201
			c-1,1.201-1.398,3.4-0.6,4.801c0.4,0.799,0.4,1.799,1,2.4c0.4,1.199,1.201,2,1.801,3c0.199,0.398-0.201,0.6-0.4,0.799
			c-0.4-0.199-0.4-1-0.801-1.199c-1.398-3-3.199-5.201-5.398-7.6c0-0.4-0.4-0.801-0.201-1.201c0.801-0.799,1-2.199,0.6-3.199
			c0-0.201-0.398-0.4-0.199-0.6l-0.6-0.602c0,1.4-0.801,2.801-0.4,4.4l0,0c-4.199-3.199-9-6-13.801-8.4l-0.398,1
			c1.199,0.4,4.398,2.201,4.398,2.201c1.4,0.6,2.801,1.4,4.201,2.199c5.6,3.201,9.4,8.4,12,14c0,0.4,0.4,1,0.199,1.4
			c-0.799-1.4-2.199-2-3.199-3.199c-0.201-2-1.4-3.801-3.201-4.602c-0.6-1-2-1-3-1.199H14.075c-12.4,0-23.6,0.4-35.801,0.199
			c-1.799-0.199-3.799-0.799-4.199-2.6c-0.4-0.6-0.4-1.799,0-2.4c0.4-0.799,1.199-1,2.199-1.199c0.602,0,1.201,0.801,1.4,1.199
			c0,0.602-0.4,1-0.6,1.602c0,0.199,0.199,0.6,0.6,0.398c0.6-0.199,1-0.799,1-1.398c0-0.201,0.201-0.801-0.199-1
			c-0.201-0.801-1.201-1.602-2-1.801c-1,0-2.201,0.199-2.801,1c-1,0.801-1,2.4-0.6,3.6c0.6,1.801,2.6,3,4.4,3.4l40.4,0.199
			c4,0.201,8.398-0.398,12.398,0.4c1.4,0.4,3,1.6,3.4,3.201h-0.199c-3.201-2.201-7.6-3-11.801-2.4c-1.6,0-3.199,0.6-4.6,1
			c-0.801,0.199-1.6-0.201-2-0.6c-1.4-1.4-4.199-1.201-6-0.801c0,0.199,0,0.199,0,0.199c2-0.199,3.199,1.602,5,1.801
			c0.4,0,0.801-0.4,1.199,0c-2,1-3.799,2-5.799,2.6c-0.6-0.199-1-0.799-1.4-1c-0.801-0.799-2.199-0.6-3.4-0.6
			c-0.4,0-0.799-0.199-1,0c0.4,0.6,1,1,1.801,1.4c1,0.4,2.199,0,3.199,0.6c-0.199,0.199-0.6,0.4-0.799,0.6
			c-2,0.801-3.602,2.6-5.801,2.4c-2.199,0.199-4.6-0.4-6.199-2c-0.602-1.6-2.4-2.6-4.201-2.4c-0.199,0-0.199,0-0.199,0.201
			c1,0.6,1.6,1.6,2.6,2.199c0.6,0.801,1.801,0,2.199,0.801c0.801,0.6,1.801,1,2.801,1.199c0.6,0.199,1.4,0.4,2.199,0.6l-0.799,0.201
			c-3.801,1.199-8,1.398-12.4,1.199c-1.199,0-2.4-0.4-3.6-0.4c0.199,0.201,0.6,0.4,1,0.6c-0.4,0.201-0.801,0.201-1.201,0.4
			c-0.398,0.201-1,0.201-1.6,0.4c-0.6,0-1.199,0.199-1.799,0.4c-0.801,0.799-1.602,1.6-2.4,2c0,0.199,0,0.4,0.199,0.4
			c0.801-0.4,1.801,0,2.6-0.4c1.4-0.201,2.201-1.6,3.201-2.201c1.199-1,2.799-0.799,4.199-0.6c0.801,0.201,0,0.6,0.201,1
			c0.398,0.201,0.6,0.6,1,0.6l0.199-0.199c0.199-0.4,0.199-0.801,0-1c0.6-0.4,1.4,0,2-0.199c1.6,0,3.199-0.4,4.6-0.4
			c0.201,0,0.6-0.201,0.801,0c-0.201,0.4-0.6,0.4-0.4,0.799c0,0.4,0.4,0.602,0.801,0.602c0.398-0.201,0.799-0.4,0.6-1
			c0-0.201-0.4-0.4-0.6-0.4c0.799-0.4,1.799-0.6,2.799-1c0.6-0.201,1.201-0.4,1.801-0.6c0.6,0,1-0.602,1.4-0.4
			c-0.201,0.799-0.4,1.4-0.801,2c-0.6,2.199-1.199,5.199,0,7.199c0.199,0,0.199,0,0.199,0c-0.799-2.199-0.398-4.799,0.4-6.799
			c0.6-3.602,4.201-4.602,6.801-6l0.199,0.199c-0.799,1.801-1.799,3.6-1.6,5.801c0,0.398-0.199,0.799,0,1
			c0.801-0.4,1.199-1.201,1.6-2c0.201-1.801-0.799-4.201,1.201-5.602c3.398-1.398,6.6-3,10.6-3.199c0.199,0.199,0.4,0,0.4,0.199
			c-0.801,1-2,1.801-2.4,3c-1.4,1.801-1.201,5-0.801,7.201c0.4,1.199-0.799,2-1.199,3c-0.201,0.4-0.4,1-0.6,1.4h0.799
			c0.801-0.801,1.4-1.602,1.4-2.801c0,0.4,0.4,0.801,0.801,0.801c0.199-0.4-0.201-0.801-0.201-1.201c0.6-0.4,1,0.4,1.4,0.6
			c0.801,0.201,1.6,0.602,2.6,0.602l0.201-0.201c-1-1.4-2.801-1.6-4.4-1.799c-0.801-1.4-0.801-3-0.801-4.801
			c0.201-0.801,0.4-1.801,0.801-2.6c0.199-0.6,0.799-1.201,1.199-1.6c0.801-0.801,1.801-1.201,2.6-1.4h0.201v0.199
			c-1.201,0.801-1.201,2-2,3.201c-0.801,1-1,2.398-0.4,3.6c0.199,0.6,0.199,1.4,0.801,1.799c0.6-0.799,0.6-1.799,0.799-2.6
			c-0.199-1.4-1-2.6-0.199-4c0.4-1,1.199-1.4,2.199-1.799c2.201-0.201,4.201,1,6.201,1.799c0.398,0.201,1.199,0.6,1.199,1.201
			c0,1.199-0.6,2.199-1.6,2.799c-1.201,0.6-2.801,0.801-3.801,0c-0.6-0.6-0.799-1.799-0.6-2.6c0.4-0.6,1-1,1.801-0.6
			c0.398,0.199,0.799,0.6,1.398,0.4c0.201-0.201,0.201-0.4,0.201-0.602c-0.4-0.199-0.6-0.799-1.201-1
			c-0.799-0.199-1.799,0-2.199,0.4c-0.801,0.801-1.199,1.801-1,3c0.199,1.4,1.199,2.4,2.6,2.6c2,0.4,4-0.199,5.201-1.799
			c0.398-0.6,0.6-1.201,1-1.801c2,1.201,3.398,3.4,4.199,5.6c0,0.801,0.199,1.4,0,2l1.4,0.201c-0.201-0.4,0-0.801,0.199-1
			c0.6-2.801,2.201-5,4.201-6.801c0.799-0.4,0.6,0.6,0.799,0.801c0.6,1.6,2,2.799,3.6,3.199c1.801,0.201,3.4-0.199,4.4-1.4
			c0.6-1,1.201-2.398,0.201-3.6c-0.602-0.799-1.4-1-2.201-1c-1,0-1.799,0.801-2.199,1.6c0,0.4,0,0.801,0.199,0.801
			c0.201,0,0.6,0,0.6-0.199c0-0.602,0.602-1,1.201-1.201c0.4-0.199,1,0,1.4,0.201c0.398,0.398,0.6,1,0.6,1.6c0,0.799-0.6,1.6-1.4,2
			c-1.199,0.6-3,0.4-4-0.4c-0.4-0.6-0.801-1.199-1.199-1.801c0-0.6-0.4-1.199,0-2c1.799-1,3.799-1.799,6-2
			c0.799,0.201,1.6,0.801,2.199,1.4c2,2-0.4,4.801,1,7c0.4,0,0.4-0.799,0.801-1.199c0.6-1.6-0.201-3.201-0.602-4.6
			c-0.6-1-0.799-1.801-1.6-2.4c0.201,0,0.201,0,0.6,0c0.801,0.6,1.801,1.199,2.602,2.199c1.199,2,1.799,4.4,1.6,6.801
			c-0.4,1.199-1.6,1.799-2.801,2.4c-0.4,0.398-1,0.799-1.199,1.398c0.6,0.201,1.199,0,1.799-0.199
			c0.801-0.199,1.201-1.199,1.801-1.801v0.201c0,0.4-0.199,1,0.199,1.199c0.201-0.6,0.201-1.4,0.4-2.199c0.6,0.6,0.6,1.4,0.801,2
			c0.4,0.799,1,1.799,2,1.799c0.199-0.398,0-0.799-0.201-1c-0.199-1-1-1.6-1.6-2.398c-1.4-2-0.799-5.201-2-7.4
			c-0.4-1.201-1.199-2-2.199-3l0.199-0.201c2,0,3.801,0.602,5.6,1c2.201,1.201,5.602,0.801,6.602,3.801
			c0.398,1.6,1.199,3.199,2.398,4.6h0.201c0.199-0.4,0.199-1.199,0-1.6c-0.201-2-2-2.6-3-4.4l0.199-0.199c1,0.199,2,0.6,3,1
			c3.4,1,5.6,4.199,6,7.6c0,2.6-0.6,4.801-1.6,7.199c-0.199,0.4-0.801,0.801-0.4,1c0.4-0.398,0.6-0.799,0.801-1.199
			c1.4-2.4,2-5.4,1.4-8.4c0-0.6-0.602-1-0.4-1.6c0.199,0.199,0.4,0.199,0.799,0.4c0.201-0.201,0.602-0.201,0.801-0.4
			c0-0.199,0.199-0.6,0-0.801c-0.199-0.398-0.801-0.398-1.199-0.199c-0.201,0.199-0.4,0.6-0.602,1
			c-0.398-0.801-0.799-1.6-1.398-2.199v-0.201c1.799,0.6,3.6,1.6,5.398,2c0.4,0.201,0.801,0.4,1.4,0.4
			c1.6,0.6,3.4,0.801,5.201,1.199c1.199-0.199,2.199,0.4,3.6,0.201l0,0l0,0c-0.4-0.6-1.4,0-2-0.4c-2.801-0.199-5.6-1-8.201-2
			c0-0.199,0.201,0,0.4,0c0.4-0.199,0.801-0.6,0.6-1c0.201-1-0.199-1-0.6-1c-0.199,0.199-0.6,0.4-0.6,0.801
			c0,0.398,0.4,0.799,0.6,0.799c0,0-0.199,0-0.4,0c-1.199-0.6-2.6-1.199-3.799-1.799c-0.4,0-0.801-0.4-1.201-0.602
			c-1-0.398-2-1-2.799-1.199c-2.6-1.4-5.6-2.199-8.4-3.199c-0.6-0.201-1.199-0.4-1.801-0.602c-1-0.199-2-0.6-3.199-0.799
			c-3.6-0.801-8.199-1-11.4,1c-0.4-0.201-0.799,0.6-1,0.199c0.801-2.4,3.4-3,5.6-3.199c16.602-0.201,32.201-0.201,48.602-0.6
			c2,0,3.799-0.602,4.799-2.4C107.476,330.26,107.675,328.66,107.075,327.459z"/>
		<path d="M86.075,340.26c0,0.199,0.199,0.199,0.199,0.4c-1.398,1.199-3.398,1.6-5.6,1.799c-0.199,0-0.4,0.201-0.6,0.201
			s-0.199-0.201,0-0.201C81.675,340.66,83.876,339.66,86.075,340.26"/>
		<path d="M79.476,340.859c0.199,0.6-0.201,1-0.6,1.199c-0.4,0-0.801-0.398-1-0.6c-0.201-0.4,0.199-0.6,0.199-0.799
			C78.476,340.26,79.275,340.26,79.476,340.859"/>
		<path d="M0.476,341.059c0,0.201,0,0.602-0.201,0.801c-0.199,0.199-0.6,0.199-0.799,0.199c-0.201,0-0.4-0.398-0.6-0.6
			c0-0.4,0.199-0.6,0.6-0.799C-0.124,340.66,0.275,340.66,0.476,341.059"/>
		<path d="M-6.925,343.66v0.199c-1,0.199-2,0-2.6-0.6c-0.6-0.801-1.201-1.6-2.201-2c0-0.201-0.199-0.201,0-0.4
			C-9.725,340.859-8.524,342.66-6.925,343.66"/>
		<path d="M92.476,341.059c-1,1.4-1.801,3.201-3.4,3.801c-0.199,0-0.6,0.4-0.801,0.199c0.602-1.6,2-3.398,3.602-4
			C92.075,340.859,92.275,340.859,92.476,341.059"/>
		<path d="M2.876,341.459c0,0.4-0.201,0.6-0.602,0.801c-0.398,0-0.398-0.201-0.799-0.4c-0.201-0.4,0.199-0.6,0.4-0.801
			C2.275,340.859,2.675,341.26,2.876,341.459"/>
		<path d="M97.675,341.66c-0.4,0.6-0.199,1.398-0.6,2c-0.801,1-1.6,2-2.801,2.199c-0.199-0.4,0.201-0.801,0.4-1.199
			c0.6-1.201,1.4-2.602,2.801-3.201L97.675,341.66"/>
		<path d="M-19.925,342.059c0.199,0.201,0.199,0.602,0,1c-0.199,0.201-0.6,0.201-1,0.201c-0.4-0.201-0.4-0.6-0.4-1
			C-20.925,341.859-20.124,341.66-19.925,342.059"/>
		<path d="M-22.124,342.66c0,0.199,0.199,0.398,0.199,0.6c-0.199,0.199-0.4,0.4-0.6,0.6c-0.4,0-0.801-0.199-1-0.6
			c0-0.4,0-0.801,0.4-0.801C-22.725,342.059-22.325,342.26-22.124,342.66"/>
		<path d="M-17.325,342.859c0,0.4,0.201,1-0.4,1c-0.6,0.199-1-0.199-1.199-0.6c0-0.4,0.199-0.6,0.4-0.801
			C-17.925,342.459-17.524,342.459-17.325,342.859"/>
		<path d="M-10.524,343.459c0,0.201,0,0.801-0.201,0.801c-0.199,0.199-0.6,0.199-0.799,0c0-0.201-0.6-0.4-0.201-0.801
			c0.201-0.199,0.4-0.4,0.602-0.4C-10.925,343.26-10.725,343.059-10.524,343.459"/>
		<path d="M101.675,343.66c-0.199,0.199-0.199,0.6-0.6,0.6s-0.801,0-1-0.4s0.199-0.801,0.6-0.801S101.675,343.26,101.675,343.66"/>
		<path d="M94.075,343.859c0,0.4-0.4,0.6-0.6,0.801c-0.6,0.199-1-0.201-1.201-0.602c0-0.398,0.4-0.6,0.801-0.799
			C93.476,343.26,93.876,343.459,94.075,343.859"/>
		<path d="M99.275,343.859c0,0.199-0.199,0.6-0.398,0.801c-0.4,0.199-0.801,0-1-0.201c-0.4-0.4,0-0.6,0.199-0.799
			C98.476,343.26,99.075,343.26,99.275,343.859"/>
		<path d="M-20.925,344.459c0,0.4,0,0.801-0.4,1c-0.4,0-0.799-0.199-1-0.6c0-0.4,0-0.801,0.4-0.801S-21.124,344.26-20.925,344.459"
			/>
		<path d="M92.075,345.059c0.199,0.4-0.199,0.801-0.6,1c-0.4,0-0.6,0-0.801-0.199c-0.199-0.199-0.4-0.6,0-0.801
			C90.876,344.26,91.675,344.459,92.075,345.059"/>
		<path d="M1.476,345.459c0.199,0.4-0.4,0.6-0.4,0.801c-0.199,0-0.4,0.199-0.6,0c-0.201-0.201-0.4-0.6-0.4-0.801
			c0.199-0.199,0.199-0.4,0.6-0.4C1.075,344.859,1.275,345.26,1.476,345.459"/>
		<path d="M100.876,345.66c0,0.199-0.201,0.398-0.201,0.6c-0.199,0.199-0.6,0.199-1,0.199c-0.4-0.199-0.4-0.6-0.4-1
			c0.201-0.199,0.201-0.4,0.602-0.4C100.275,345.059,100.876,345.26,100.876,345.66"/>
		<path d="M98.275,345.859c0.201,0.6-0.199,0.801-0.6,0.801c-0.199,0-0.4,0-0.4,0.199c1,0.6,1.801,1.4,2.602,2.199v0.4
			c-1.4,0-3-0.4-4.201-1.6c-0.199-0.199-0.799-0.199-1.199-0.6c0.6-0.6,1.6-0.4,2.199-0.4c0.6-0.6-0.6-1,0-1.6
			c0.201,0,0.4-0.201,0.801-0.201C98.075,345.459,98.275,345.66,98.275,345.859"/>
		<path d="M81.275,345.859c0,0.199-0.199,0.4-0.199,0.6c-0.199,0.4-0.6,0.4-0.801,0.201c-0.199-0.201-0.6-0.602-0.398-1
			C80.075,345.059,81.275,345.26,81.275,345.859"/>
		<path d="M-11.524,347.459c-0.201,0.4-0.201,0.6-0.801,0.6c-0.4,0-0.6-0.199-0.799-0.6c0-0.199,0.199-0.4,0.199-0.6
			C-12.325,346.459-11.524,346.66-11.524,347.459"/>
		<path d="M-8.124,346.859c0,0.6-0.602,1-0.801,1.6c-0.6,1.4-1.801,2.6-3.4,2.801c-0.199-0.4,0.6-0.801,0.801-1.201
			c0.6-1.398,2-2.199,3.199-3h0.201"/>
		<path d="M80.275,347.459c0,0.4-0.398,0.801-0.799,1c-0.4,0.201-0.6-0.199-0.801-0.4c-0.4-0.398-0.199-0.6,0-1
			C79.275,346.459,80.075,346.859,80.275,347.459"/>
		<path d="M82.876,347.66c0,0.398-0.4,0.799-0.801,1c0-0.201-0.199,0-0.4,0c-0.199-0.201-0.6-0.4-0.6-0.801
			c0.199-0.199,0.199-0.6,0.6-0.6C82.275,347.059,82.876,347.26,82.876,347.66"/>
		<path d="M-1.725,347.66c0,0.398-0.199,0.799-0.6,0.799s-0.6-0.199-0.799-0.6c0-0.4,0.199-0.6,0.398-0.801
			C-2.124,347.059-1.925,347.459-1.725,347.66"/>
		<path d="M1.075,347.859c-0.199,0.4-0.4,0.6-0.801,0.801c-0.199,0-0.6-0.201-0.799-0.602c0-0.398,0.199-0.6,0.6-0.799
			C0.675,347.26,1.075,347.459,1.075,347.859"/>
		<path d="M91.876,350.66c0.199,0.199,0.6,0.398,0.398,0.6c-0.6,0.199-1.199-0.4-1.799-0.6c-1-1-1.801-2-2.201-3.4
			c0.4-0.4,0.801,0,1.201,0.199C90.476,348.459,91.275,349.459,91.876,350.66"/>
		<path d="M93.476,347.859c0.199,0.199,0,0.6,0,1c-0.201,0.4-0.801,0.4-1.201,0.199c-0.199-0.199-0.6-0.6-0.398-1
			c0.199-0.398,0.398-0.398,0.799-0.6C92.876,347.459,93.075,347.66,93.476,347.859"/>
		<path d="M4.876,348.859c0,0.4,0.199,0.801-0.201,1c-0.4,0-0.799,0-1-0.6c-0.199-0.6,0.201-0.6,0.6-0.801
			C4.476,348.459,4.675,348.66,4.876,348.859"/>
		<path d="M82.876,351.66c0.6,0.799,1,1.799,1,3c-0.201,0.199,0.199,0.6,0,0.799h-0.201c-1.799-1.4-2.199-3.199-3-5.199
			c-0.199,0-0.199-0.201-0.199-0.4c0.4-0.4,0.799,0.4,1.199,0.6L82.876,351.66"/>
		<path d="M10.275,350.26L10.275,350.26c-1.6,1.199-4,2-5.799,0.799c0-0.199,0-0.398,0.199-0.398c1.201-0.4,2.4-1,3.6-0.801
			L10.275,350.26"/>
		<path d="M0.876,350.459c-1.4,0.801-2.602,2.6-4.4,3c-0.4,0.201-0.6,0.6-1,0.4c0.799-2.199,3.199-3.4,5.4-3.6V350.459"/>
		<path d="M80.275,352.26c0.201,0.4,0,0.799-0.398,0.799c-0.201,0.201-0.602,0.201-0.801,0c-0.4-0.199-0.4-0.6-0.4-0.799
			c0.201-0.201,0.4-0.4,0.6-0.4C79.876,352.059,80.075,352.059,80.275,352.26"/>
		<path d="M76.876,352.459c-0.201,0.6-1,1-1.4,1c-1.4,0.6-2.801-0.199-4-0.6c0-0.4,0.4-0.199,0.6-0.4
			c1.4-0.199,2.801-0.6,4.199-0.199C76.476,352.459,76.876,352.26,76.876,352.459"/>
		<path d="M0.876,353.66c-0.201,0.199-0.201,0.6-0.4,0.6c-0.201,0.199-0.6,0-0.801-0.201c0-0.199-0.4-0.398-0.199-0.799
			c0-0.201,0.4-0.4,0.6-0.4C0.476,353.059,0.876,353.26,0.876,353.66"/>
		<path d="M3.275,354.059c-0.199,0.201-0.199,0.602-0.6,0.801c-0.4,0-0.6,0-0.799-0.199c-0.201-0.201-0.201-0.602-0.201-0.801
			s0.4-0.199,0.6-0.4C2.876,353.26,3.275,353.859,3.275,354.059"/>
		<path d="M79.476,354.459c0,0.4-0.201,0.6-0.201,0.801c-0.199,0.199-0.6,0.4-1,0.199c-0.199,0-0.398-0.4-0.6-0.6
			c-0.199-0.4,0.201-0.6,0.201-0.801C78.675,353.66,79.275,353.859,79.476,354.459"/>
		<path d="M81.476,354.459c0,0.201,0.199,0.4,0,0.6c-0.201,0.201-0.4,0.801-1,0.602c-0.201,0-0.4-0.201-0.4-0.4
			c-0.199-0.4,0-1,0.4-1.201C80.876,354.059,81.275,354.26,81.476,354.459"/>
		<path d="M1.876,355.66c0,0.398,0,0.799-0.4,1.199c-0.4,0-1,0-1.201-0.4c0-0.4,0-1,0.4-1.199
			C1.075,355.059,1.675,355.059,1.876,355.66"/>
		<path d="M4.275,355.459c0,1.201-0.398,2.6-1.398,3.201c-0.602,0.199-1.4,0.799-2,0.398v-0.199
			C1.675,357.66,3.275,356.66,4.275,355.459"/>
		<path d="M73.075,356.459c0.199,0.201-0.199,0.4-0.199,0.6c-0.201,0.201-0.801,0.201-1,0c-0.201-0.199-0.4-0.6-0.201-0.799
			c0-0.201,0.4-0.4,0.6-0.4C72.476,355.859,72.876,356.059,73.075,356.459"/>
		<path d="M8.476,358.459c0.6,1,0.199,2.201,0.6,3.4c-0.801,0-1-0.801-1.4-1.199c-1-1.201-0.799-3-1.199-4.4
			c0-0.201,0.199-0.201,0.199,0c0.6,0.4,1,1.199,1.6,1.799C8.075,358.059,8.476,358.059,8.476,358.459"/>
		<path d="M75.075,356.859c0,0.4-0.4,0.4-0.6,0.6c-0.201,0-0.6-0.199-0.801-0.4c-0.199-0.398,0.201-0.6,0.4-0.799
			C74.675,356.059,75.075,356.26,75.075,356.859"/>
		<path d="M80.075,360.459c0,0.201,0,0.4-0.199,0.201h-0.201c-1.199-1-2.4-2.4-2.199-4h0.199
			C78.876,357.66,80.075,358.859,80.075,360.459"/>
		<path d="M76.876,359.26c0,0.4-0.201,0.6-0.4,0.799c-0.4,0.201-1.201,0-1.201-0.6c0-0.4,0.4-0.6,0.602-0.799
			C76.476,358.459,76.876,358.859,76.876,359.26"/>
		<path d="M74.275,360.059c-0.6,1.602-2.199,2.4-3.199,3.602c-0.199-0.201-0.199-0.4,0-0.602c0.4-1.6,1.6-3.199,3.199-3.799
			C74.675,359.26,74.075,359.66,74.275,360.059"/>
		<path d="M77.275,361.26c0,0.4-0.398,0.6-0.6,0.799c-0.4,0-0.6-0.199-1-0.398c0-0.4,0.201-0.602,0.6-0.801
			C76.876,360.66,77.075,361.059,77.275,361.26"/>
		<path d="M46.476,285.66h-0.4c-1.199,0-0.199,1.398,0.4,1.398C47.275,287.059,47.275,285.66,46.476,285.66 M42.675,287.059
			c1.201,0,0-1.398-0.6-1.398h-1.199c-1.201,0,0,1.398,0.6,1.398H42.675z M37.675,287.059c1.201,0,0-1.398-0.6-1.398h-1.199
			c-1.201,0,0,1.398,0.6,1.398H37.675z M46.476,285.26c0.6,0,1,0.4,1,1s-0.4,1-1,1h-12.4c-0.6,0-1-0.4-1-1s0.4-1,1-1H46.476z"/>
		<path d="M46.476,304.459c0,0.6,0.799,0.201,1.199,0.201c0.6,0,1.201,0.398,1.201-0.201c0-0.799-0.801-0.6-1.201-0.6
			S46.476,303.66,46.476,304.459 M48.876,305.66c0.6,0,0.6-0.801,0.6-1.4c0-1.4-1.201,0-1.801-1.4c-0.4,1.199-1.6,0-1.6,1.4
			c0,0.799,0,1.4,0.801,1.4H48.876z M45.275,299.459l2.4,1l2.4-1l-1,3.4l1.801-0.4l-0.602,2l0.602,2l-1.602-0.4l0.801,3.801l-2.4-1
			l-2.4,1l1-3.801l-1.799,0.801l0.6-2l-0.6-2l1.799,0.199L45.275,299.459z"/>
		<polyline points="39.876,304.66 39.876,304.059 39.476,304.059 39.675,303.66 39.476,303.459 39.876,303.459 40.275,303.059 
			40.476,303.459 40.876,303.459 40.675,303.66 40.876,304.059 40.476,304.059 40.476,304.66 40.275,304.26 39.876,304.66 		"/>
		<polyline points="38.075,306.859 38.075,306.459 37.675,306.459 37.876,306.059 37.675,305.66 38.075,305.859 38.476,305.26 
			38.675,305.859 39.075,305.66 38.876,306.059 39.075,306.459 38.675,306.459 38.675,306.859 38.476,306.66 38.075,306.859 		"/>
		<polyline points="41.075,306.66 41.075,306.26 40.675,306.059 41.075,305.859 40.876,305.459 41.275,305.459 41.476,305.059 
			41.675,305.459 42.075,305.459 41.876,305.859 42.275,306.059 41.876,306.26 41.876,306.66 41.476,306.26 41.075,306.66 		"/>
		<polyline points="41.476,308.459 41.476,308.059 41.275,308.059 41.476,307.859 41.275,307.66 41.476,307.66 41.675,307.459 
			41.876,307.66 42.075,307.66 41.876,307.859 42.075,308.059 41.876,308.059 41.876,308.459 41.675,308.26 41.476,308.459 		"/>
		<polyline points="38.675,310.459 38.675,309.66 37.876,309.459 38.476,309.059 38.075,308.26 38.876,308.459 39.275,307.66 
			39.675,308.459 40.275,308.26 40.075,309.059 40.476,309.459 39.876,309.66 39.876,310.459 39.275,309.859 38.675,310.459 		"/>
		<polyline points="40.075,270.859 41.476,274.459 45.275,273.459 43.275,276.859 46.476,279.059 42.675,279.66 42.876,283.66 
			40.075,281.059 37.275,283.66 37.476,279.66 33.675,279.059 36.675,276.859 34.876,273.459 38.675,274.459 40.075,270.859 		"/>
		<path d="M26.675,351.66c-0.4,0.199-0.6,0.199-0.6,0.799l0.6,2.201c0,0.398,0.201,1-0.199,1.398c-0.4,0.4-1,0.801-1.6,0.801
			c-0.4,0-1.201,0.199-1.801,0c-0.4-0.199-0.6-0.4-0.801-1.199l-0.6-2.4c-0.199-0.6-0.4-0.6-0.799-0.4v-0.199l2.799-0.602v0.201
			c-0.6,0.199-0.799,0.199-0.6,0.799l0.6,2.4c0,0.4,0.4,1.4,1.6,1c1.4-0.4,1.201-1.4,1.201-1.799l-0.6-2.201c0-0.4-0.201-0.6-1-0.4
			v-0.199L26.675,351.66L26.675,351.66"/>
		<path d="M30.876,352.059c-0.201-0.398-1-1.199-2-1c-0.4,0-0.801,0.4-0.801,0.801s0.199,0.4,1,0.6l1.4,0.4c0.4,0,1,0.4,1.199,1
			c0.201,0.6-0.199,1.6-1.799,2c-0.801,0.199-1.201,0-1.4,0c-0.201,0-0.201,0.199-0.201,0.199h-0.199l-0.4-1.799h0.201
			c0.398,0.6,1,1.4,2,1.199c1-0.199,0.799-1,0.799-1c-0.199-0.4-0.6-0.6-1.199-0.6l-0.6-0.199c-1.602-0.201-1.602-0.801-1.801-1.201
			c0-0.4,0-1.4,1.6-1.799c0.6-0.201,1.201,0,1.4,0s0.199-0.201,0.199-0.4h0.201l0.4,1.6V352.059"/>
		<path d="M36.275,354.859l-3,0.199v-0.199c0.602-0.199,0.801-0.199,0.801-0.801l-0.4-3.799c-0.6,0-1.4,0.199-1.6,1.4h-0.199
			l-0.201-1.4l5-0.4l0.201,1.4h-0.201c-0.199-1.201-1.199-1-1.799-1l0.398,3.799C35.476,354.66,35.675,354.66,36.275,354.859
			L36.275,354.859"/>
		<path d="M39.675,352.26c1.201,0,1.6-0.201,1.6-1c0-0.801-0.398-1-1-1c-0.398,0-0.398,0-0.6,0.199V352.26 M43.275,354.859h-1.799
			l-1.801-2.199h-0.199v1.398c0,0.602,0.199,0.602,0.799,0.602v0.199h-2.799v-0.199c0.6,0,0.799,0,0.799-0.602v-3.199
			c0-0.6-0.199-0.6-0.799-0.6v-0.201h2.799c0.602,0,2.4,0.201,2.4,1.4c0,0.801-0.799,1-1.4,1.201l1.602,2
			C43.075,354.66,43.275,354.66,43.275,354.859L43.275,354.859z"/>
		<path d="M46.476,353.459l-0.6-1.799l-1,1.6L46.476,353.459 M48.876,355.459l-2.801-0.4v-0.199c0.6,0,0.6,0,0.801-0.199
			c0-0.201-0.201-0.801-0.201-1l-1.799-0.201c-0.201,0.4-0.4,0.801-0.4,0.801c0,0.199,0.4,0.4,0.6,0.4v0.199h-2v-0.199
			c0.4,0,0.6-0.201,1-0.801l2.4-3.6h0.199l1.4,4C48.476,355.059,48.476,355.26,48.876,355.459L48.876,355.459z"/>
		<path d="M53.876,356.459l-4.801-0.799v-0.201c0.4,0,0.801,0,0.801-0.4l0.6-3.398c0-0.4-0.201-0.602-0.6-0.602v-0.199l3,0.6v0.201
			c-0.602,0-0.801-0.201-1,0.398l-0.602,3.4c0,0.4,0.201,0.4,0.602,0.6c1.199,0.201,1.799-0.199,2.398-1h0.201L53.876,356.459"/>
		<path d="M57.075,357.26l-3-0.6v-0.201c0.4,0,0.801,0,0.801-0.4l0.6-3.398c0-0.4-0.201-0.602-0.6-0.602v-0.199l3,0.6v0.201
			c-0.4,0-0.801-0.201-0.801,0.398l-0.6,3.4C56.275,356.859,56.675,356.859,57.075,357.26L57.075,357.26"/>
		<path d="M60.476,356.059l-0.6-1.799l-1,1.6L60.476,356.059 M62.876,358.059l-2.801-0.199v-0.199c0.6,0,0.6,0,0.801-0.201
			c0-0.199-0.201-0.799-0.201-1l-1.799-0.199c-0.201,0.4-0.4,0.799-0.4,0.799c0,0.201,0.4,0.4,0.6,0.4v0.201l-1.801-0.201v-0.199
			c0.4,0,0.602-0.201,1-0.801l2.201-3.6h0.199l1.6,4C62.476,357.459,62.476,357.859,62.876,358.059L62.876,358.059z"/>
		<path d="M39.675,300.859c-0.4,0-1.199,0.4-1.199-0.199c0-0.801,0.6-0.602,1-0.602s1.199-0.199,1.199,0.602
			C40.876,301.26,40.275,300.859,39.675,300.859 M41.275,300.66c0-1.801-1-0.201-1.398-1.602c-0.4,1.201-1.602,0.201-1.602,1.602
			c0,0.6,0.201,0.799,0.4,1v0.6c0,0.199,0.201,0.199,0.201,0.199h1.799c0.201,0,0.201-0.199,0.201-0.199v-0.6
			C41.075,301.26,41.275,301.059,41.275,300.66z"/>
		<path d="M56.075,321.66c0.4,0,0.801-0.4,0.801-0.602c0-0.398-0.4-0.6-0.801-0.6s-0.801,0.4-0.801,0.6
			C55.275,321.26,55.675,321.66,56.075,321.66"/>
		<path d="M52.476,296.26c0,0-0.4,0.6-0.4,0.799c0,0.201,0.199,0.4,0.4,0.4c0.199,0,0.4-0.199,0.4-0.4L52.476,296.26"/>
		<path d="M27.275,296.26c0,0-0.398,0.6-0.398,0.799c0,0.201,0.199,0.4,0.398,0.4c0.201,0,0.4-0.199,0.4-0.4L27.275,296.26"/>
		<path d="M33.675,296.26c0,0-0.4,0.6-0.4,0.799c0,0.201,0.201,0.4,0.4,0.4c0.201,0,0.4-0.199,0.4-0.4
			C33.876,297.059,33.675,296.26,33.675,296.26"/>
		<path d="M39.876,296.26c0,0-0.4,0.6-0.4,0.799c0,0.201,0.199,0.4,0.4,0.4c0.199,0,0.398-0.199,0.398-0.4L39.876,296.26"/>
		<path d="M46.075,296.26c0,0-0.4,0.6-0.4,0.799c0,0.201,0.201,0.4,0.4,0.4s0.4-0.199,0.4-0.4L46.075,296.26"/>
		<path d="M27.275,304.859c0,0,0.4,0.6,0.4,0.801c0,0.199-0.199,0.398-0.4,0.398c-0.199,0-0.398-0.199-0.398-0.398L27.275,304.859"
			/>
		<path d="M27.275,313.26c0,0,0.4,0.6,0.4,0.799c0,0.201-0.199,0.4-0.4,0.4c-0.199,0-0.398-0.199-0.398-0.4L27.275,313.26"/>
		<path d="M28.275,319.859c0,0,0.4,0.6,0.4,0.801c0,0.199-0.199,0.398-0.4,0.398c-0.199,0-0.398-0.199-0.398-0.398L28.275,319.859"
			/>
		<path d="M33.675,323.459c0,0,0.4,0.6,0.4,0.801c0,0.199-0.199,0.4-0.4,0.4c-0.199,0-0.4-0.201-0.4-0.4
			C33.275,324.059,33.675,323.459,33.675,323.459"/>
		<path d="M52.675,304.859c0,0-0.4,0.6-0.4,0.801c0,0.199,0.201,0.398,0.4,0.398c0.201,0,0.4-0.199,0.4-0.398L52.675,304.859"/>
		<path d="M52.675,313.26c0,0-0.4,0.6-0.4,0.799c0,0.201,0.201,0.4,0.4,0.4c0.201,0,0.4-0.199,0.4-0.4L52.675,313.26"/>
		<path d="M51.675,319.859c0,0-0.4,0.6-0.4,0.801c0,0.199,0.201,0.398,0.4,0.398c0.201,0,0.4-0.199,0.4-0.398L51.675,319.859"/>
		<path d="M46.476,323.459c0,0-0.4,0.6-0.4,0.801c0,0.199,0.199,0.4,0.4,0.4c0.199,0,0.4-0.201,0.4-0.4
			C46.876,324.059,46.476,323.459,46.476,323.459"/>
		<path d="M40.075,327.059c0,0-0.4,0.602-0.4,0.801s0.201,0.4,0.4,0.4s0.4-0.201,0.4-0.4L40.075,327.059"/>
		<path d="M50.275,314.66c0,0.199,0.201,0.199,0.602,0l0.199-0.602c0,0-0.199-0.398-0.4-0.199c-0.6,0.199-1.4,0.199-1.799,0.801
			c0,0.398,0.398,0.799,0.6,1c0.199,0,0.199,0.199,0.4,0.199c0,0.199,0,0.4-0.201,0.4c-0.4-0.4-1.4,0.199-1.6-0.4
			c0.199-0.6,0.4-1.199,0-1.801c0-0.199,0.199-0.199,0.199-0.398c-0.199-0.602-0.799-0.201-1.199-0.201c-0.6,0-1,0.201-1.4,0.801
			c0,0.199,0.201,0.4,0.4,0.6c0.199,0,0.199,0,0.199,0.199l-0.398,0.201c0.199,0.199,0.199,0.199,0.199,0.4
			c-0.199,0.199-0.6-0.201-0.6-0.4c0-0.4,0-0.801-0.4-1l-0.4,0.199c0,0.201-0.199,0.4-0.199,0.6c0,0.201,0.199,0.801,0.199,0.801
			s1.201,1,1.4,1.4c-0.4,0.799-0.4,1.799-1.199,2.199c-0.4,0-0.4,0.201-0.4,0.6l0.199,0.201c0.6-0.201,1.4-0.4,1.4-1.201
			c0.199-0.398,0.4-0.799,0.801-1c0.398,0,0.799,0.201,1,0.4c-0.201,0.6-0.602,1-1,1.201c0,0,0,0.199,0,0.398
			c0.199,0.201,0.6,0.201,0.799,0.201c0.6-0.4,1-1.201,1.6-1.4c0,0.4-0.799,0.6-0.199,1c0.4,0,0.801,0,1-0.4
			c-0.199-0.6,1-1,0.199-1.6c0-0.6,0.602-0.801,0.602-1.4c-0.201-0.6-1-0.6-1.201-1.199
			C49.675,314.459,50.075,314.459,50.275,314.66"/>
		<path d="M21.476,321.859c0.4,0,0.799-0.4,0.799-0.6c0-0.4-0.398-0.6-0.799-0.6s-0.801,0.398-0.801,0.6
			C20.675,321.66,21.075,321.859,21.476,321.859"/>
		<path d="M-19.325,345.66c0.4,0,0.801-0.4,0.801-0.801s-0.4-0.801-0.801-0.801s-0.799,0.4-0.799,0.801
			C-19.925,345.26-19.725,345.66-19.325,345.66"/>
		<path d="M6.476,351.26C6.476,351.26,6.675,351.26,6.476,351.26C6.675,351.26,6.675,351.26,6.476,351.26L6.476,351.26L6.476,351.26
			 M6.675,351.459L6.675,351.459L6.675,351.459L6.675,351.459L6.675,351.459C6.476,351.459,6.476,351.459,6.675,351.459
			L6.675,351.459L6.675,351.459L6.675,351.459C6.476,351.459,6.476,351.459,6.675,351.459L6.675,351.459
			C6.476,351.26,6.476,351.26,6.675,351.459L6.675,351.459L6.675,351.459C6.675,351.26,6.675,351.26,6.675,351.459
			C6.675,351.26,6.675,351.26,6.675,351.459L6.675,351.459L6.675,351.459L6.675,351.459z"/>
		<path d="M6.675,351.26L6.675,351.26L6.675,351.26L6.675,351.26L6.675,351.26C6.675,351.26,6.675,351.459,6.675,351.26
			C6.675,351.459,6.675,351.459,6.675,351.26C6.675,351.459,6.675,351.459,6.675,351.26C6.675,351.459,6.675,351.459,6.675,351.26
			L6.675,351.26L6.675,351.26L6.675,351.26C6.675,351.459,6.675,351.459,6.675,351.26C6.675,351.459,6.675,351.459,6.675,351.26
			C6.675,351.459,6.675,351.459,6.675,351.26L6.675,351.26L6.675,351.26L6.675,351.26L6.675,351.26L6.675,351.26L6.675,351.26
			L6.675,351.26L6.675,351.26"/>
		<path d="M7.075,351.26L7.075,351.26L7.075,351.26L7.075,351.26L7.075,351.26L7.075,351.26L7.075,351.26H6.876l0,0l0,0H7.075
			L7.075,351.26C6.876,351.26,6.876,351.26,7.075,351.26L7.075,351.26L7.075,351.26L7.075,351.26L7.075,351.26
			C6.876,351.26,6.876,351.26,7.075,351.26L7.075,351.26L7.075,351.26L7.075,351.26C6.876,351.26,6.876,351.26,7.075,351.26
			C6.876,351.26,6.876,351.26,7.075,351.26L7.075,351.26L7.075,351.26L7.075,351.26L7.075,351.26L7.075,351.26L7.075,351.26
			L7.075,351.26L7.075,351.26"/>
		<path d="M7.075,351.459L7.075,351.459C7.075,351.459,7.075,351.26,7.075,351.459C7.075,351.26,7.075,351.26,7.075,351.459
			C7.075,351.26,7.075,351.26,7.075,351.459C7.075,351.26,7.075,351.459,7.075,351.459 M7.075,351.459L7.075,351.459L7.075,351.459
			L7.075,351.459L7.075,351.459C7.075,351.26,7.075,351.26,7.075,351.459C7.075,351.26,7.075,351.26,7.075,351.459L7.075,351.459
			L7.075,351.459z"/>
		<path d="M7.075,351.26C7.275,351.26,7.275,351.26,7.075,351.26C7.275,351.26,7.275,351.459,7.075,351.26
			C7.275,351.459,7.275,351.459,7.075,351.26C7.075,351.459,7.075,351.459,7.075,351.26C7.075,351.459,7.075,351.459,7.075,351.26
			C7.075,351.459,7.275,351.459,7.075,351.26C7.275,351.459,7.275,351.459,7.075,351.26C7.275,351.459,7.275,351.459,7.075,351.26
			C7.275,351.459,7.075,351.459,7.075,351.26L7.075,351.26L7.075,351.26L7.075,351.26L7.075,351.26L7.075,351.26"/>
		<path d="M53.675,317.66c-0.199,1.6-0.799,3-1.799,3.799l-11,7l0,0c-0.201,0.201-0.602,0.201-0.801,0.201
			c-0.4,0-0.6-0.201-0.801-0.4l-10.799-7c-1.201-0.801-1.801-2.201-1.801-3.801v-21.4h27.4v21.602 M54.476,295.26L54.476,295.26h-29
			l0,0l0,0v22.199c0,2.201,1,4.201,2.199,4.801l11.201,7c0.199,0.199,0.6,0.4,1,0.4c0.398,0,0.6-0.201,1-0.4l11.398-7.201
			c1.4-0.6,2.201-2.6,2.201-4.799V295.26L54.476,295.26z"/>
		<path d="M43.876,327.459l0.398-0.199C44.075,327.459,44.075,327.459,43.876,327.459"/>
		<path d="M19.275,356.459l-1-1.6l-0.6,1.801L19.275,356.459 M22.075,357.859l-2.801,0.4v-0.201c0.602,0,0.602-0.199,0.602-0.398
			c0-0.201-0.4-0.602-0.4-0.801h-1.801c-0.199,0.6-0.199,0.801-0.199,1s0.4,0.199,0.799,0.199v0.201l-1.799,0.199v-0.199
			c0.4-0.201,0.6-0.4,0.799-1l1.4-4h0.201l2.398,3.4C21.476,357.459,21.675,357.66,22.075,357.859L22.075,357.859z"/>
		<path d="M68.876,349.059c-0.4,0.801-1,1.4-1.801,1.4c0-1,1-1.799,0.6-2.799c-0.6-0.801-1.6-1-2.6-0.801
			c-0.4,0.199-0.199,0.6-0.4,1l-0.199,1.4c-0.801,0-0.801-0.801-1.201-1.4c0-0.801,0.4-1.801,1.201-2.199c0.6-0.4,1.799-0.201,2.4,0
			c0.6,0.199,1.199,0.398,1.398,0.799C69.275,347.26,69.075,348.26,68.876,349.059 M65.476,349.459c0.4-0.4-0.201-3,1.199-1.4
			c0,0.4,0,0.801-0.199,1C66.275,349.26,65.876,349.66,65.476,349.459z M66.075,350.459c0,0.6-0.6,0.6-1,0.801h-1
			c-0.199-0.4-0.199-0.801-0.199-1.201C64.675,350.26,65.476,350.26,66.075,350.459z M67.275,355.66c-0.398,0.398,0,1-0.398,1.398
			c0,0.801-0.602,1.201-1.201,1.4c-5,1-9.799-0.6-14.6-1.4c-6.6-1.398-14.4-1.799-21.4-0.398c-3.199,0.6-6.4,1.398-9.4,2.199
			c-2,0.199-4,0.6-5.799,0c-1.4-0.801-0.801-2.6-1.4-4c0-1-0.199-1.801-0.4-2.801c-0.199-0.398-0.199-0.799-0.199-1
			c0.6,0,1.199,0.602,2,0.801c3.4,0.6,6.6-0.4,9.799-1c3.201-0.6,6.4-1.199,9.602-1.4c3.799,0,7.6-0.199,11.199,0.4
			c1.199,0,2.199,0.4,3.199,0.4c2.4,0.199,4.4,1,6.801,1c0.4,0.199,0.801,0.199,1.199,0.199c3.801,0.6,8,1.6,11.602,0
			C68.075,352.66,67.476,354.059,67.275,355.66z M46.075,358.66c0.199,0.6,0.6,1.199,0.4,1.799c-0.4,0.801-1.201,0.801-2,1
			c-0.4,0-0.6,0-1-0.199c0-0.201,0-0.201-0.201-0.4c0.201-0.6-1-1-0.199-1.6C43.876,358.459,45.476,357.059,46.075,358.66z
			 M47.075,358.859c0.6,0.199,0.6,0.6,0.6,1c0,1-0.6,1.801-1.4,2c-0.398,0.199-1.199,0.4-1.6,0.199c1,0,2-0.398,2.4-1.398V358.859z
			 M48.075,364.26C48.075,364.459,48.075,364.459,48.075,364.26c-1.199,0.199-2-0.6-3-1.201v-0.199
			C46.075,363.059,47.075,363.859,48.075,364.26z M46.476,368.26c0,0.199-0.201,0.199-0.4,0c-1.199-1.6-1.801-3.201-2.6-5h0.199
			C44.675,364.859,45.476,366.66,46.476,368.26z M44.476,367.26h-0.201c-0.199-0.201-0.199-0.6,0-0.801
			C44.476,366.66,44.675,366.859,44.476,367.26z M43.275,364.66c0,0.398,0.4,0.6,0.201,1
			C43.476,365.459,43.275,365.059,43.275,364.66z M43.075,361.859L43.075,361.859L43.075,361.859L43.075,361.859L43.075,361.859z
			 M40.675,368.059c-0.799,0-2,0.602-2.799-0.199c0-0.4-0.4-0.6-0.201-0.801c0.6-0.199,1.201,0.602,1.801,0c1,0,2-0.199,3,0
			c0.4,0.201,1.199-0.799,1.199,0.201C43.275,368.66,41.675,367.66,40.675,368.059z M38.876,363.059l0.199-0.398
			c-0.4,1-0.801,2-1.4,3C37.476,364.859,38.476,364.059,38.876,363.059z M40.075,362.26c0.6-0.6,1,0.4,1.199,0.799
			c0.602,1,2.201,1.801,1.602,3c-0.801,0.801-2,0-3,0.602c-0.4,0-1.201,0-1.4-0.4C38.876,365.059,39.275,363.459,40.075,362.26z
			 M39.876,360.66L39.876,360.66v-0.201C40.075,360.459,39.876,360.66,39.876,360.66z M40.876,360.859
			c0.199-0.199,0.398-0.6,0.6-0.6c0,0,0,0,0,0.199C41.275,360.459,41.075,360.66,40.876,360.859z M41.476,361.459c0,0,0.199,0,0.4,0
			H41.476z M42.476,362.66v0.199l-1-0.801C41.876,362.26,42.275,362.459,42.476,362.66z M42.476,360.26L42.476,360.26L42.476,360.26
			L42.476,360.26L42.476,360.26z M44.275,357.66c-0.6,0.199-0.799,0.799-1.398,0.799C43.075,358.059,43.675,357.459,44.275,357.66z
			 M42.075,357.059c0-0.398,0.4,0,0.6-0.199h1.201C43.275,356.859,42.476,358.26,42.075,357.059z M39.075,358.26
			c0.199-0.6,0.199-1,0.6-1.6c0.4,0,0.801,0,1.201,0.199c0,0.801,1.199,2,0,2.6c-0.4,0.201-1,0.6-1.4,0.201
			C38.876,359.26,38.876,358.859,39.075,358.26z M38.476,360.859c0-0.199,0-0.4,0.199-0.6c0.201-0.201,0.4,0.199,0.4,0.199
			C38.876,360.66,38.675,360.859,38.476,360.859z M38.275,358.459L38.275,358.459v0.4l0,0V358.459z M37.876,357.66
			c-0.602-0.201-0.801-0.801-1.4-0.801c0.4-0.199,1-0.199,1.6,0C38.275,357.059,37.876,357.459,37.876,357.66z M37.476,361.059
			c0.199-0.6,0.4-1.199,0.6-1.799C38.075,359.859,37.876,360.459,37.476,361.059z M36.476,361.059c-0.801,0-1.4-0.199-2-0.6
			c-0.4-0.4,0-0.799,0-1.4c0.6-1,2.199-1.398,3-0.6C37.476,359.459,37.075,360.26,36.476,361.059z M36.876,362.059L36.876,362.059
			L36.876,362.059L36.876,362.059L36.876,362.059L36.876,362.059L36.876,362.059z M35.876,364.66c-0.602,1.398-1.201,2.6-2,4
			c0,0.199-0.4,0.199-0.602,0.199c0-0.6,0.602-1,0.801-1.6c0.801-1.201,1.199-2.4,2.199-3.4
			C36.275,364.059,35.876,364.26,35.876,364.66z M31.876,364.059c1-0.398,2-1.199,3.199-1
			C34.275,363.859,33.075,364.059,31.876,364.059z M33.476,361.26c-0.201-1.4,0.4-2.801,1.4-3.801c0.6-0.199,1.199-0.199,1.799,0
			c-1,0.201-2.4,0.6-2.799,2c0,0.6-0.201,0.801,0.199,1.4c0.4,0.801,1.4,0.4,2,1c0,0.199-0.199,0.4-0.4,0.6
			C34.876,362.059,34.075,361.859,33.476,361.26z M13.876,347.859c0.199-0.4,0-0.801,0.398-1c0.201,0,0.801,0,0.801,0.199
			c0,0.602,0,1-0.199,1.4C14.476,348.66,14.075,348.26,13.876,347.859z M14.075,349.26c0.6,0.4,1.4,0.199,2.199,0.4
			c0.201,0.398,0.201,1-0.199,1.398c-0.801-0.199-1.6,0-2-0.799C14.275,350.059,14.075,349.66,14.075,349.26z M12.075,348.059
			c0.199-0.799,0.199-1.6,1-2c1-0.6,2.4-0.398,3.199,0.201c0.201,0.199,0.602,0.4,0.602,0.799c0.199,0.801-0.201,1.4-0.602,1.801
			h-0.398c0-0.6,0-1.4,0.199-1.801c0-0.6-0.4-0.6-0.801-0.799c-0.799-0.201-1.398,0.199-1.799,0.4c-0.4,0.6-0.801,1.199-0.6,1.799
			c0.199,0.4,0,1,0.199,1.6l-0.199,0.201C12.675,349.66,12.075,349.059,12.075,348.059z M51.075,365.859c1,0.4,3,0.801,4.4,1
			c-0.201,0.6-1.201,0-1,0.801c-1.201-0.602-2.801-0.801-3.801-1.801C50.876,365.859,50.876,365.859,51.075,365.859z
			 M25.075,366.459l-0.6-0.6c0.199-0.4,1-0.199,1.4-0.4c1-0.4,2.398-0.799,3.6-0.6C28.275,366.059,26.675,366.059,25.075,366.459z
			 M70.075,347.459c-0.4-1.199-1.6-2.199-2.801-2.6c-1.398-0.199-2.799,0-3.6,1c-1.4,1.199-0.4,3.199-0.4,4.801
			c0,0.398,0,0.6-0.199,0.799c-6-0.6-11.6-2-17.6-2.6c-1.4-0.199-2.801-0.199-4-0.4l-1.6-0.199c-5.201,0.199-10.4,0.4-15.201,1.799
			c-1,0.4-2.199,0.4-3.199,0.801c-0.801-0.199-1.4,0.4-2,0.199l-1.4,0.4c-0.199,0-0.199,0-0.4,0c-0.6-1.799,1.4-2.799,0.801-4.4
			c-0.6-1-1.6-1.799-2.801-1.799c-1.4-0.201-2.6,0.6-3.4,1.799c-1,2,0.201,4.201,0.602,6.4c0,0.6,0.6,1.4,0,2c-1.4-1-3-1.4-4.602-1
			c-0.398,0.201-1.398,0-1.6,0.6c1.801,1,4,0.801,6,0.801c0.201,0,0.4-0.199,0.6,0c0.201,1-0.199,2.6,0.4,3.6
			c0.801,1,2,1.201,3.201,1.4c3.799-0.199,7.199-1.199,10.799-2.199c0.6,0,1-0.4,1.6-0.4c1.201-1,3.201-1.4,5.201-1.4
			c-0.801,1.199-1.4,2.4-1.801,3.801c-0.4,1.199,0.801,1.199,1.201,2c-1.201,0.398-2.201,1.199-3.4,1.799c-2.6,0-5,1-7.4,1.201
			c0,0.6,0.801,0.398,1,1c-0.199,0.398-0.4,0.398-0.801,0.6c0,0.199,0,0.199,0.201,0.4c0.199-0.201,0.799,0,1-0.4
			c0.799,0,1.6-0.201,2.4-0.201c0.799-0.199,1.398-0.398,2.199-0.799c0.801-0.201,1.4-0.801,2.199-1c1.201,0,2.4-0.4,3.602-0.6
			v0.199c-1,1.6-2,3.199-3,4.6c-0.201,0.201,0,0.6,0.199,0.6c0.6,0.201,1.199,0,1.6-0.199c0.801-1.6,1.6-3,2.4-4.4
			c0.199-1.4,1.4-2.199,2.4-3.199c0.199,0,0.4-0.4,0.6,0c-0.801,1-1.4,1.799-2,3c-0.4,1.199-0.4,2.6,0.6,3.6
			c0.4,0.4,1.201,0.199,2,0.4c1.6-0.801,3.6,0.4,5-1c0.801-0.201,0.801,0.799,1.201,1.199c0.799,0.201,1.398,1,2.199,0.4
			c0-0.4-0.6-0.801-0.801-1.199c-0.398-0.801-1.199-1.602-1.6-2.4c-0.199-0.6-0.6-1-0.6-1.6c0.801,0.199,1.4,0.799,2.199,0.799
			c0.801,0.201,1.602,0.201,2.201,0.6c0.6,0.801,1.4,1.201,2,1.602c1,0.6,2.199,0.6,3.199,1c0.4,0,1,0.398,1.4,0
			c-0.199-0.201-0.4-0.4-0.6-0.4c-0.201-0.6,0.799-0.201,1-0.6c0-0.801-0.201-0.801-0.4-1c-0.6-0.4-2-0.4-2.4-0.602
			c-0.4,0-1-0.199-1.4-0.398c-2.398,0-3.799-2.201-5.799-3c0.4-0.4,1.199-0.801,1.4-1.4c0.398-0.6,0.6-1.6,0.199-2.201
			c-0.4-1.199-2-1.199-3-1.799l0.199-0.201c1.602,0,3,0.201,4.4,0.602c4,0.6,7.6,2,11.801,2.199c2.199,0,5.199,0.199,6.199-2
			c0.201-1.199,0.4-2.6,0.6-3.801C68.876,351.66,70.275,349.66,70.075,347.459z"/>
	</g>
	<g>
		<rect x="118.476" y="332.66" width="260.799" height="1.398"/>
	</g>
</g>
<g id="Layer_3" display="none">
	<text transform="matrix(1 0 0 1 88.0154 60.5322)" display="inline" font-family="'TimesNewRomanPSMT'" font-size="12">Office of Road Safety</text>
</g>
<g id="Layer_3_copy">
	<g>
		<path d="M133.876,347.66c1.6,1.6,2.398,3.6,2.398,6.199s-0.799,4.6-2.398,6.199c-1.602,1.602-3.602,2.4-6,2.4
			c-2.602,0-4.602-0.799-6.201-2.6c-1.6-1.6-2.199-3.6-2.199-5.801c0-2.6,0.799-4.6,2.4-6.199c1.6-1.6,3.6-2.4,6.199-2.4
			C130.275,345.26,132.275,346.059,133.876,347.66z M131.476,358.459c0.4-1.199,0.6-2.6,0.6-4.6c0-2.6-0.4-4.4-1.199-5.801
			c-0.801-1.199-1.801-2-3.201-2c-1.799,0-3,1-3.799,3.201c-0.4,1.199-0.602,2.6-0.602,4.4c0,1.799,0.201,3.398,0.602,4.6
			c0.6,2.199,2,3.199,3.799,3.199C129.675,361.66,130.876,360.459,131.476,358.459z"/>
		<path d="M137.476,361.26c0.4,0,0.799-0.201,1-0.4c0.199-0.199,0.4-0.6,0.4-1.199v-7.801h-1.4v-1h1.4v-0.801
			c0-1.199,0.199-2,0.6-2.799c0.6-1.4,1.799-2,3.6-2c1,0,1.801,0.199,2.4,0.6s1,1,1,1.801c0,0.398-0.201,0.799-0.4,1
			c-0.199,0.199-0.6,0.398-1.199,0.398c-0.4,0-0.801-0.199-1-0.398c-0.201-0.201-0.4-0.602-0.4-1c0-0.201,0-0.602,0.199-0.801
			c0.201-0.199,0.201-0.4,0.201-0.6c0-0.201,0-0.4-0.201-0.4c-0.199,0-0.199,0-0.4,0c-0.398,0-0.6,0.199-1,0.4
			c-0.398,0.199-0.398,0.799-0.398,1.4v3.199h2v1h-2v7.4c0,0.799,0.199,1.4,0.398,1.6c0.201,0.199,0.801,0.4,1.602,0.4v0.6h-6.602
			v-0.6H137.476z"/>
		<path d="M145.476,361.26c0.4,0,0.799-0.201,1-0.4c0.199-0.199,0.4-0.6,0.4-1.199v-7.801h-1.4v-1h1.4v-0.801
			c0-1.199,0.199-2,0.6-2.799c0.6-1.4,1.799-2,3.6-2c1,0,1.801,0.199,2.4,0.6s1,1,1,1.801c0,0.398-0.201,0.799-0.4,1
			c-0.199,0.199-0.6,0.398-1.199,0.398c-0.4,0-0.801-0.199-1-0.398c-0.201-0.201-0.4-0.602-0.4-1c0-0.201,0-0.602,0.199-0.801
			c0.201-0.199,0.201-0.4,0.201-0.6c0-0.201,0-0.4-0.201-0.4c-0.199,0-0.199,0-0.4,0c-0.398,0-0.6,0.199-1,0.4
			c-0.398,0.199-0.398,0.799-0.398,1.4v3.199h2v1h-2v7.4c0,0.799,0.199,1.4,0.398,1.6c0.201,0.199,0.801,0.4,1.602,0.4v0.6h-6.602
			v-0.6H145.476z"/>
		<path d="M153.476,361.26c0.4,0,0.799-0.201,0.799-0.4c0.201-0.199,0.4-0.6,0.4-1.199v-6.801c0-0.4,0-0.801-0.199-1
			c-0.201-0.199-0.4-0.4-1-0.4v-0.6h4.6v9.199c0,0.602,0,0.801,0.199,1c0.201,0.201,0.4,0.201,0.801,0.4v0.6h-5.801v-0.799H153.476z
			 M155.075,345.859c0.4-0.4,0.801-0.6,1.4-0.6s1,0.199,1.4,0.6c0.398,0.4,0.6,0.801,0.6,1.4s-0.201,1-0.6,1.4
			c-0.4,0.398-0.801,0.6-1.4,0.6s-1-0.201-1.4-0.6c-0.4-0.4-0.6-0.801-0.6-1.4S154.876,346.26,155.075,345.859z"/>
		<path d="M168.675,351.26c0.801,0.4,1.201,1.199,1.201,1.799c0,0.4-0.201,0.801-0.4,1c-0.201,0.201-0.6,0.4-1.201,0.4
			c-0.398,0-0.6,0-0.799-0.199c-0.4-0.201-0.6-0.801-0.6-1.4c0,0,0-0.199,0-0.4c0-0.199,0-0.199,0-0.4c0-0.398,0-0.799-0.201-0.799
			c-0.199-0.201-0.4-0.201-0.6-0.201c-0.801,0-1.199,0.4-1.6,1.201c-0.4,0.799-0.4,1.799-0.4,2.799c0,1.602,0.199,2.801,0.801,3.801
			c0.6,1,1.398,1.6,2.398,1.6c0.602,0,1.201-0.199,1.602-0.4c0.199-0.199,0.6-0.398,1-1l0.398,0.4c-0.799,1-1.6,1.801-2.799,2.201
			c-0.6,0.199-1.201,0.398-1.801,0.398c-1.6,0-2.799-0.6-3.799-1.6s-1.4-2.4-1.4-4s0.6-3,1.6-4.199c1-1.201,2.4-1.801,4.199-1.801
			C167.075,350.66,167.876,350.859,168.675,351.26z"/>
		<path d="M172.476,352.059c1-1,2.199-1.6,3.6-1.6c0.801,0,1.6,0.201,2.199,0.6c0.602,0.4,1.201,1,1.602,1.801
			c0.199,0.6,0.398,1.199,0.6,2.199c0,0.4,0,0.801,0,1h-6c0,1,0.199,1.801,0.4,2.4c0.398,1.4,1.199,2,2.398,2
			c0.602,0,1-0.199,1.602-0.6c0.398-0.199,0.6-0.6,1.199-1l0.6,0.4c-0.799,1.199-1.6,2-2.6,2.6c-0.6,0.4-1.4,0.4-2.199,0.4
			c-1.201,0-2.201-0.4-3.4-1.4c-1.201-1-1.6-2.4-1.6-4.4C171.075,354.66,171.476,353.059,172.476,352.059z M177.675,355.059
			c0-1.398-0.199-2.398-0.4-3c-0.199-0.6-0.6-0.799-1.199-0.799s-1,0.4-1.199,1c-0.201,0.6-0.4,1.6-0.4,2.799H177.675z"/>
		<path d="M189.275,352.26c1-1.201,2.4-1.6,3.801-1.6c1.6,0,2.801,0.6,3.801,1.799c1,1.201,1.6,2.6,1.6,4.201c0,1.6-0.6,3-1.6,4.199
			s-2.4,1.801-4,1.801c-1.602,0-2.801-0.602-3.801-1.602s-1.6-2.6-1.6-4.199C187.675,354.66,188.075,353.459,189.275,352.26z
			 M191.476,359.859c0.199,1,0.799,1.6,1.6,1.6s1.199-0.4,1.6-1.199c0.4-0.801,0.4-2,0.4-3.801c0-1.799-0.199-3-0.4-3.799
			c-0.199-0.801-0.799-1.201-1.4-1.201c-0.799,0-1.398,0.6-1.6,1.6c-0.199,0.602-0.199,1.801-0.199,3.602
			C191.275,358.059,191.275,359.26,191.476,359.859z"/>
		<path d="M199.476,361.26c0.4,0,0.799-0.201,1-0.4c0.199-0.199,0.4-0.6,0.4-1.199v-7.801h-1.4v-1h1.4v-0.801
			c0-1.199,0.199-2,0.6-2.799c0.6-1.4,1.799-2,3.6-2c1,0,1.801,0.199,2.4,0.6s1,1,1,1.801c0,0.398-0.201,0.799-0.4,1
			c-0.199,0.199-0.6,0.398-1.199,0.398c-0.4,0-0.801-0.199-1-0.398c-0.201-0.201-0.4-0.602-0.4-1c0-0.201,0-0.602,0.199-0.801
			c0.201-0.199,0.201-0.4,0.201-0.6c0-0.201,0-0.4-0.201-0.4c-0.199,0-0.199,0-0.4,0c-0.398,0-0.6,0.199-1,0.4
			c-0.398,0.199-0.398,0.799-0.398,1.4v3.199h2v1h-2v7.4c0,0.799,0.199,1.4,0.398,1.6c0.201,0.199,0.801,0.4,1.602,0.4v0.6h-6.602
			v-0.6H199.476z"/>
		<path d="M213.476,361.26c0.799,0,1.4-0.201,1.6-0.4s0.4-0.801,0.4-1.801v-10.6c0-1-0.201-1.6-0.6-1.799
			c-0.201-0.201-0.801-0.4-1.602-0.4v-0.6h7.801c1.6,0,2.801,0.199,3.801,0.6c2,0.6,2.799,2,2.799,3.6c0,1.4-0.6,2.4-1.6,3
			c-0.801,0.6-1.6,1-2.4,1l5.201,6.801c0.199,0.199,0.199,0.398,0.398,0.398c0.201,0,0.4,0,0.602,0.201v0.6h-5l-5.602-7.6l0,0v4.6
			c0,0.801,0.201,1.4,0.4,1.801c0.201,0.398,0.801,0.398,1.6,0.398v0.602h-8.199v-0.4H213.476z M222.876,353.059
			c0.6-0.398,1-1.398,1-3c0-1-0.201-1.6-0.4-2.199c-0.4-1-1.201-1.4-2.4-1.4c-0.6,0-1,0-1.199,0.201
			c-0.201,0.199-0.201,0.398-0.201,0.799v6.201C221.075,353.66,222.275,353.459,222.876,353.059z"/>
		<path d="M232.476,352.26c1-1.201,2.4-1.6,3.799-1.6c1.602,0,2.801,0.6,3.801,1.799c1,1.201,1.6,2.6,1.6,4.201
			c0,1.6-0.6,3-1.6,4.199s-2.4,1.801-4,1.801s-2.801-0.602-3.801-1.602s-1.6-2.6-1.6-4.199
			C231.075,354.66,231.476,353.459,232.476,352.26z M234.675,359.859c0.201,1,0.801,1.6,1.6,1.6c0.801,0,1.201-0.4,1.602-1.199
			c0.398-0.801,0.398-2,0.398-3.801c0-1.799-0.199-3-0.398-3.799c-0.201-0.801-0.801-1.201-1.4-1.201c-0.801,0-1.4,0.6-1.6,1.6
			c-0.201,0.602-0.201,1.801-0.201,3.602C234.476,358.059,234.675,359.26,234.675,359.859z"/>
		<path d="M244.675,357.059c1-0.6,2.6-1.199,4.801-2v-1.799c0-0.801-0.201-1.201-0.4-1.6c-0.199-0.4-0.801-0.602-1.6-0.602
			c-0.4,0-0.801,0-1,0.201c-0.201,0.199-0.4,0.4-0.4,0.6v0.199c0,0,0,0.201,0.199,0.201l0.201,0.199
			c0.199,0.201,0.199,0.201,0.199,0.4s0,0.4,0,0.6c0,0.4-0.199,0.801-0.4,1c-0.199,0.201-0.6,0.4-1,0.4
			c-0.398,0-0.799-0.199-1.199-0.4c-0.4-0.199-0.4-0.6-0.4-1.199c0-1,0.4-1.6,1.4-2.201c1-0.6,2-0.799,3.199-0.799
			c1.4,0,2.4,0.199,3.4,0.799c1,0.602,1.4,1.602,1.4,3v5.801c0,0.199,0,0.4,0.199,0.4c0.201,0,0.201,0.199,0.201,0.199h0.199
			c0,0,0.201-0.199,0.4-0.199l0.4,0.6c-0.4,0.6-1,1-1.6,1.199c-0.4,0.201-0.801,0.201-1.201,0.201c-0.799,0-1.199-0.201-1.6-0.6
			c-0.199-0.201-0.4-0.602-0.4-1c-0.6,0.6-1.4,1.199-2.199,1.398c-0.6,0.201-1,0.201-1.6,0.201c-0.602,0-1.201-0.201-1.801-0.6
			c-0.6-0.4-0.801-1-0.801-2C243.075,358.66,243.675,357.66,244.675,357.059z M248.876,360.26c0.199-0.201,0.398-0.4,0.6-0.6v-3.602
			c-0.6,0.201-1.201,0.4-1.6,0.801c-0.801,0.6-1.201,1.4-1.201,2.199c0,0.602,0.201,1,0.4,1.201c0.199,0.199,0.6,0.4,0.801,0.4
			C248.075,360.459,248.476,360.459,248.876,360.26z"/>
		<path d="M256.476,352.26c1-1,2-1.6,3.199-1.6c0.6,0,1.201,0.199,1.6,0.398c0.4,0.201,0.602,0.602,1.201,1v-4.398
			c0-0.602-0.201-1-0.4-1.201c-0.199-0.199-0.801-0.199-1.4-0.199v-0.6h5.201v13.799c0,0.4,0,0.801,0.199,1
			c0.199,0.201,0.6,0.4,1.199,0.4v0.6c-1.398,0.201-2.199,0.201-2.6,0.201s-1,0.199-2,0.6v-1.6c-0.4,0.398-0.799,0.799-1.199,1
			c-0.6,0.398-1.201,0.6-2,0.6c-1.201,0-2.201-0.4-3-1.4c-0.801-1-1.4-2.4-1.4-4C255.075,354.859,255.476,353.26,256.476,352.26z
			 M261.876,360.26c0.398-0.4,0.6-0.801,0.6-1v-5.801c0-0.199-0.201-0.4-0.6-0.799c-0.4-0.4-0.801-0.602-1.4-0.602
			c-0.801,0-1.4,0.602-1.801,1.801c-0.199,0.6-0.199,1.6-0.199,2.6c0,1.201,0,2.201,0.199,2.801c0.201,1.199,0.801,1.6,1.6,1.6
			C261.075,360.859,261.476,360.66,261.876,360.26z"/>
		<path d="M274.675,356.26h0.6c0.4,1.799,1,3,1.801,4c0.801,0.799,1.801,1.199,3,1.199c1,0,1.801-0.199,2.199-0.799
			c0.4-0.602,0.602-1.201,0.602-1.801c0-0.801-0.201-1.4-0.801-1.801c-0.4-0.199-1-0.6-1.801-1.199l-1.6-0.801
			c-1.6-0.799-2.6-1.6-3.199-2.199c-0.6-0.801-1-1.6-1-2.801c0-1.199,0.4-2.199,1.199-3.199c0.801-1,2-1.6,3.801-1.6
			c0.799,0,1.799,0.199,2.6,0.4c0.801,0.199,1.199,0.398,1.4,0.398c0.199,0,0.4,0,0.6-0.199s0.199-0.4,0.199-0.6h0.801v5.199h-0.6
			c-0.4-1.199-0.801-2.199-1.6-3.199c-0.801-0.801-1.801-1.4-2.801-1.4c-0.801,0-1.4,0.199-1.801,0.6c-0.398,0.4-0.6,1-0.6,1.6
			c0,0.801,0.201,1.4,0.6,1.801c0.4,0.4,1.4,1,2.801,1.6l1.801,0.801c0.799,0.4,1.398,0.799,1.799,1.4c0.801,1,1.4,2,1.4,3.398
			c0,1.201-0.4,2.4-1.4,3.4s-2.4,1.6-4.6,1.6c-0.4,0-1,0-1.4-0.199c-0.4,0-1-0.199-1.4-0.4l-0.398-0.199c-0.201,0-0.201,0-0.4,0
			h-0.201c-0.199,0-0.398,0-0.6,0.199c-0.199,0.201-0.199,0.4-0.199,0.6h-0.6v-5.799H274.675z"/>
		<path d="M289.275,357.059c1-0.6,2.602-1.199,4.801-2v-1.799c0-0.801-0.199-1.201-0.4-1.6c-0.199-0.4-0.799-0.602-1.6-0.602
			c-0.4,0-0.801,0-1,0.201c-0.199,0.199-0.4,0.4-0.4,0.6v0.199c0,0,0,0.201,0.201,0.201l0.199,0.199
			c0.199,0.201,0.199,0.201,0.199,0.4s0,0.4,0,0.6c0,0.4-0.199,0.801-0.398,1c-0.201,0.201-0.602,0.4-1,0.4
			c-0.4,0-0.801-0.199-1.201-0.4c-0.4-0.199-0.4-0.6-0.4-1.199c0-1,0.4-1.6,1.4-2.201c1-0.6,2-0.799,3.201-0.799
			c1.398,0,2.398,0.199,3.398,0.799c1,0.602,1.4,1.602,1.4,3v5.801c0,0.199,0,0.4,0.201,0.4c0.199,0,0.199,0.199,0.199,0.199h0.199
			c0,0,0.201-0.199,0.4-0.199l0.4,0.6c-0.4,0.6-1,1-1.6,1.199c-0.4,0.201-0.801,0.201-1.201,0.201c-0.799,0-1.199-0.201-1.6-0.6
			c-0.199-0.201-0.4-0.602-0.4-1c-0.6,0.6-1.398,1.199-2.199,1.398c-0.6,0.201-1,0.201-1.6,0.201s-1.201-0.201-1.801-0.6
			c-0.6-0.4-0.799-1-0.799-2C287.675,358.66,288.275,357.66,289.275,357.059z M293.476,360.26c0.199-0.201,0.4-0.4,0.6-0.6v-3.602
			c-0.6,0.201-1.199,0.4-1.6,0.801c-0.801,0.6-1.201,1.4-1.201,2.199c0,0.602,0.201,1,0.4,1.201c0.201,0.199,0.6,0.4,0.801,0.4
			C292.876,360.459,293.075,360.459,293.476,360.26z"/>
		<path d="M299.476,361.26c0.4,0,0.799-0.201,1-0.4c0.199-0.199,0.4-0.6,0.4-1.199v-7.801h-1.4v-1h1.4v-0.801
			c0-1.199,0.199-2,0.6-2.799c0.6-1.4,1.799-2,3.6-2c1,0,1.801,0.199,2.4,0.6s1,1,1,1.801c0,0.398-0.201,0.799-0.4,1
			c-0.199,0.199-0.6,0.398-1.199,0.398c-0.4,0-0.801-0.199-1-0.398c-0.201-0.201-0.4-0.602-0.4-1c0-0.201,0-0.602,0.199-0.801
			c0.201-0.199,0.201-0.4,0.201-0.6c0-0.201,0-0.4-0.201-0.4c-0.199,0-0.199,0-0.4,0c-0.398,0-0.6,0.199-1,0.4
			c-0.398,0.199-0.398,0.799-0.398,1.4v3.199h2v1h-2v7.4c0,0.799,0.199,1.4,0.398,1.6c0.201,0.199,0.801,0.4,1.602,0.4v0.6h-6.602
			v-0.6H299.476z"/>
		<path d="M309.075,352.059c1-1,2.199-1.6,3.6-1.6c0.801,0,1.6,0.201,2.201,0.6c0.6,0.4,1.199,1,1.6,1.801
			c0.199,0.6,0.4,1.199,0.6,2.199c0,0.4,0,0.801,0,1h-6.199c0,1,0.199,1.801,0.398,2.4c0.4,1.4,1.201,2,2.4,2c0.6,0,1-0.199,1.6-0.6
			c0.4-0.199,0.602-0.6,1.201-1l0.6,0.4c-0.801,1.199-1.6,2-2.6,2.6c-0.6,0.4-1.4,0.4-2.201,0.4c-1.199,0-2.199-0.4-3.398-1.4
			c-1.201-1-1.602-2.4-1.602-4.4C307.675,354.66,308.075,353.059,309.075,352.059z M314.275,355.059c0-1.398-0.199-2.398-0.398-3
			c-0.201-0.6-0.602-0.799-1.201-0.799s-1,0.4-1.199,1c-0.201,0.6-0.4,1.6-0.4,2.799H314.275z"/>
		<path d="M318.275,351.859v-0.6c0.201-0.201,0.4-0.4,0.801-0.6c0.4-0.4,0.801-0.801,1.199-1.201c0.801-0.799,1.4-1.6,2-2.6h0.602v4
			h2.199v1h-2.199v7.199c0,0.4,0,0.602,0.199,0.801c0.199,0.4,0.4,0.6,0.801,0.6c0.398,0,0.6-0.199,0.799-0.4
			c0.201-0.199,0.4-0.6,0.6-1l0.602,0.201c-0.201,0.6-0.602,1.199-1,1.6c-0.602,0.801-1.602,1-2.602,1c-0.6,0-1-0.199-1.398-0.4
			c-0.801-0.4-1.201-1.199-1.201-2.199v-7.801h-1.4V351.859z"/>
		<path d="M326.275,363.859c0.4-0.199,0.801-0.4,1.201-0.4s0.799,0.201,1,0.4c0.199,0.199,0.4,0.4,0.4,0.801v0.6
			c0,0.199,0,0.199,0.199,0.199s0.199,0.201,0.4,0.201c0.4,0,0.799-0.4,1.199-1c0.201-0.4,0.6-1.201,1-2.4l-2.799-7
			c-0.201-0.6-0.4-1-0.602-1.4c-0.199-0.4-0.398-0.801-0.6-1.199c-0.199-0.4-0.4-0.602-0.6-0.801s-0.4-0.199-0.6-0.199v-0.801h6v0.6
			c-0.4,0-0.6,0-1,0.201c-0.4,0.199-0.4,0.199-0.4,0.6v0.199c0,0,0,0.201,0.199,0.6l2,4.801h0.201l1.6-4.199
			c0-0.201,0.199-0.4,0.199-0.602c0-0.199,0-0.398,0-0.398c0-0.4-0.199-0.602-0.398-0.602c-0.201,0-0.602-0.199-1-0.199v-1h3.6v0.6
			c-0.4,0-0.6,0.201-0.801,0.201c-0.199,0-0.4,0.398-0.6,1l-3.6,9.6c-0.6,1.799-1.201,3-1.801,3.6s-1.199,1-2.4,1
			c-0.799,0-1.398-0.199-1.799-0.6s-0.6-0.801-0.6-1.201C325.876,364.459,325.876,364.059,326.275,363.859z"/>
	</g>
</g>
</svg>
